<svg width="20.000000" height="16.853027" viewBox="0 0 20 16.853" fill="none" xmlns="http://www.w3.org/2000/svg" xmlns:xlink="http://www.w3.org/1999/xlink">
	<desc>
			Created with Pixso.
	</desc>
	<defs/>
	<path id="Vector" d="M19.15 5.68L15 5.68L12.67 0.35C12.54 0.05 12.19 -0.09 11.9 0.04C11.6 0.17 11.47 0.52 11.6 0.82L13.72 5.68L6.27 5.68L8.39 0.82C8.52 0.52 8.39 0.17 8.09 0.04C7.8 -0.09 7.45 0.05 7.32 0.35L4.99 5.68L0.84 5.68C0.3 5.68 -0.1 6.17 0.01 6.68L2.2 16.2C2.29 16.58 2.63 16.85 3.03 16.85L16.96 16.85C17.36 16.85 17.7 16.58 17.79 16.2L19.98 6.68C20.09 6.17 19.69 5.68 19.15 5.68ZM5.1 7.47C5.02 7.47 4.94 7.46 4.87 7.42C4.57 7.29 4.44 6.95 4.57 6.65L5.01 5.64L6.28 5.64L5.64 7.12C5.54 7.34 5.33 7.47 5.1 7.47ZM7.07 13.72C7.07 14.05 6.8 14.31 6.48 14.31C6.16 14.31 5.89 14.05 5.89 13.72L5.89 9.43C5.89 9.1 6.16 8.84 6.48 8.84C6.8 8.84 7.07 9.1 7.07 9.43L7.07 13.72ZM10.58 13.72C10.58 14.05 10.32 14.31 10 14.31C9.67 14.31 9.41 14.05 9.41 13.72L9.41 9.43C9.41 9.1 9.67 8.84 10 8.84C10.32 8.84 10.58 9.1 10.58 9.43L10.58 13.72ZM14.1 13.72C14.1 14.05 13.83 14.31 13.51 14.31C13.19 14.31 12.92 14.05 12.92 13.72L12.92 9.43C12.92 9.1 13.19 8.84 13.51 8.84C13.83 8.84 14.1 9.1 14.1 9.43L14.1 13.72ZM15.12 7.42C15.05 7.46 14.97 7.47 14.89 7.47C14.66 7.47 14.45 7.34 14.35 7.12L13.71 5.64L14.98 5.64L15.42 6.65C15.55 6.95 15.42 7.29 15.12 7.42Z" fill="#6F73EE" fill-opacity="1.000000" fill-rule="nonzero"/>
</svg>
