<svg width="20.000000" height="11.977539" viewBox="0 0 20 11.9775" fill="none" xmlns="http://www.w3.org/2000/svg" xmlns:xlink="http://www.w3.org/1999/xlink">
	<desc>
			Created with Pixso.
	</desc>
	<defs/>
	<path id="Vector" d="M19.41 7.25L18.77 7.25L16.73 2.31C17.01 2.27 17.24 2.03 17.24 1.73C17.24 1.41 16.98 1.14 16.65 1.14L11.61 1.14C11.37 0.47 10.73 0 9.98 0C9.23 0 8.59 0.47 8.35 1.14L3.34 1.14C3.01 1.14 2.75 1.41 2.75 1.73C2.75 2.03 2.98 2.27 3.26 2.31L1.22 7.25L0.58 7.25C0.26 7.25 0 7.51 0 7.83C0 10.12 1.85 11.97 4.14 11.97C6.42 11.97 8.27 10.12 8.27 7.83C8.27 7.51 8.01 7.25 7.69 7.25L7.05 7.25L5.01 2.32L8.35 2.32C8.59 2.98 9.23 3.46 9.98 3.46C10.73 3.46 11.37 2.98 11.61 2.32L14.98 2.32L12.94 7.25L12.3 7.25C11.98 7.25 11.72 7.51 11.72 7.83C11.72 10.12 13.57 11.97 15.85 11.97C18.14 11.97 20 10.12 20 7.83C20 7.51 19.73 7.25 19.41 7.25ZM4.14 10.8C2.7 10.8 1.5 9.78 1.23 8.42L7.04 8.42C6.77 9.78 5.57 10.8 4.14 10.8ZM5.78 7.25L2.49 7.25L4.14 3.26L5.78 7.25ZM9.98 2.29C9.67 2.29 9.42 2.04 9.42 1.73C9.42 1.42 9.67 1.17 9.98 1.17C10.29 1.17 10.54 1.42 10.54 1.73C10.54 2.04 10.29 2.29 9.98 2.29ZM15.85 3.26L17.5 7.25L14.21 7.25L15.85 3.26ZM15.85 10.8C14.42 10.8 13.22 9.78 12.95 8.42L18.76 8.42C18.49 9.78 17.29 10.8 15.85 10.8Z" fill="#282739" fill-opacity="1.000000" fill-rule="nonzero"/>
	<path id="Vector" d="M18.19 11.25C17.53 11.7 16.72 11.97 15.85 11.97C14.99 11.97 14.18 11.7 13.52 11.25C13.45 11.2 13.38 11.15 13.31 11.1C13.18 11 13.06 10.89 12.95 10.77C12.59 10.42 12.3 10.01 12.09 9.55C11.85 9.03 11.72 8.45 11.72 7.83C11.72 7.53 11.94 7.28 12.24 7.25C12.26 7.25 12.28 7.25 12.3 7.25L12.94 7.25L13.06 6.96L13.28 6.41L13.33 6.32L13.69 5.43L13.81 5.14L14.11 4.42L14.21 4.18L14.23 4.13L14.33 3.9L14.54 3.37L14.59 3.25L14.98 2.32L11.61 2.32C11.39 2.92 10.84 3.37 10.18 3.45C10.12 3.46 10.05 3.46 9.98 3.46C9.92 3.46 9.87 3.46 9.81 3.45C9.14 3.39 8.57 2.93 8.35 2.32L5.01 2.32L5.4 3.25L5.44 3.36L5.66 3.9L5.76 4.13L5.78 4.18L5.88 4.42L6.18 5.14L6.3 5.43L6.66 6.32L6.72 6.44L6.93 6.96L7.05 7.25L7.69 7.25C7.71 7.25 7.73 7.25 7.75 7.25C8.05 7.28 8.27 7.53 8.27 7.83C8.27 8.45 8.14 9.03 7.9 9.55C7.69 10.01 7.4 10.42 7.04 10.77C6.93 10.89 6.81 11 6.68 11.1C6.61 11.15 6.54 11.2 6.47 11.25C5.81 11.7 5 11.97 4.14 11.97C3.27 11.97 2.46 11.7 1.8 11.25C1.73 11.2 1.66 11.15 1.59 11.1C1.46 11 1.34 10.89 1.23 10.77C0.47 10.02 0 8.98 0 7.83C0 7.51 0.26 7.25 0.58 7.25L1.22 7.25L1.33 6.96L1.73 6.02L1.97 5.43L2.39 4.42L2.49 4.18L2.6 3.9L2.87 3.25L3.26 2.31C3.16 2.3 3.07 2.26 2.99 2.2C2.85 2.09 2.75 1.92 2.75 1.73C2.75 1.41 3.01 1.14 3.34 1.14L8.35 1.14C8.38 1.05 8.42 0.97 8.46 0.89C8.76 0.36 9.33 0 9.98 0C10.62 0 11.19 0.35 11.49 0.87C11.54 0.96 11.58 1.05 11.61 1.14L16.65 1.14C16.98 1.14 17.24 1.41 17.24 1.73C17.24 1.92 17.14 2.09 17 2.2C16.92 2.26 16.83 2.3 16.73 2.31L17.12 3.25L17.39 3.9L17.5 4.18L17.6 4.42L18.02 5.43L18.26 6.02L18.66 6.96L18.77 7.25L19.41 7.25C19.73 7.25 20 7.51 20 7.83C20 8.98 19.52 10.02 18.76 10.77C18.65 10.89 18.53 11 18.4 11.1C18.33 11.15 18.26 11.2 18.19 11.25ZM17.23 10.46C16.83 10.67 16.39 10.79 15.91 10.8C15.89 10.8 15.87 10.8 15.85 10.8C15.84 10.8 15.82 10.8 15.8 10.8C15.33 10.79 14.88 10.67 14.48 10.46C13.7 10.05 13.13 9.31 12.95 8.42L18.76 8.42C18.58 9.31 18.01 10.05 17.23 10.46ZM16.71 7.25L17.5 7.25L17.39 6.96L16.63 5.14L16.63 5.14L16.33 4.42L15.85 3.26L15.38 4.42L15.21 4.82L15.08 5.14L14.98 5.38L14.59 6.32L14.33 6.96L14.21 7.25L16.71 7.25ZM3.66 4.42L3.36 5.14L3.36 5.14L2.6 6.96L2.49 7.25L5.78 7.25L5.66 6.96L5.4 6.32L5.01 5.38L4.91 5.14L4.78 4.82L4.61 4.42L4.14 3.26L3.66 4.42ZM2.95 8.42L1.23 8.42C1.41 9.31 1.98 10.05 2.76 10.46C3.16 10.67 3.6 10.79 4.08 10.8C4.1 10.8 4.12 10.8 4.14 10.8C4.15 10.8 4.17 10.8 4.19 10.8C4.66 10.79 5.11 10.67 5.51 10.46C6.29 10.05 6.86 9.31 7.04 8.42L2.95 8.42ZM9.98 2.29C9.67 2.29 9.42 2.04 9.42 1.73C9.42 1.42 9.67 1.17 9.98 1.17C10.29 1.17 10.54 1.42 10.54 1.73C10.54 2.04 10.29 2.29 9.98 2.29Z" fill="#282739" fill-opacity="1.000000" fill-rule="evenodd"/>
</svg>
