<svg width="18.000000" height="13.500000" viewBox="0 0 18 13.5" fill="none" xmlns="http://www.w3.org/2000/svg" xmlns:xlink="http://www.w3.org/1999/xlink">
	<desc>
			Created with Pixso.
	</desc>
	<defs/>
	<path id="Vector" d="M16.5 1.5L16.5 0.75C16.5 0.33 16.16 0 15.75 0L13.5 0C13.08 0 12.75 0.33 12.75 0.75L12.75 1.5L12.53 1.5L12.21 1.18C11.94 0.91 11.55 0.75 11.16 0.75L6.83 0.75C6.44 0.75 6.05 0.91 5.78 1.18L5.46 1.5L5.25 1.5L5.25 0.75C5.25 0.33 4.91 0 4.5 0L2.25 0C1.83 0 1.5 0.33 1.5 0.75L1.5 1.5C0.67 1.5 0 2.17 0 3L0 12C0 12.82 0.67 13.5 1.5 13.5L16.5 13.5C17.32 13.5 18 12.82 18 12L18 3C18 2.17 17.32 1.5 16.5 1.5ZM4.12 5.25L2.62 5.25C2.41 5.25 2.25 5.08 2.25 4.87C2.25 4.66 2.41 4.5 2.62 4.5L4.12 4.5C4.33 4.5 4.5 4.66 4.5 4.87C4.5 5.08 4.33 5.25 4.12 5.25ZM15.37 5.25L15 5.25L15 5.62C15 5.83 14.83 6 14.62 6C14.41 6 14.25 5.83 14.25 5.62L14.25 5.25L13.87 5.25C13.66 5.25 13.5 5.08 13.5 4.87C13.5 4.66 13.66 4.5 13.87 4.5L14.25 4.5L14.25 4.12C14.25 3.91 14.41 3.75 14.62 3.75C14.83 3.75 15 3.91 15 4.12L15 4.5L15.37 4.5C15.58 4.5 15.75 4.66 15.75 4.87C15.75 5.08 15.58 5.25 15.37 5.25Z" fill="#5D6C7B" fill-opacity="1.000000" fill-rule="nonzero"/>
</svg>
