<svg width="34.078125" height="23.367188" viewBox="0 0 34.0781 23.3672" fill="none" xmlns="http://www.w3.org/2000/svg" xmlns:xlink="http://www.w3.org/1999/xlink">
	<desc>
			Created with Pixso.
	</desc>
	<defs/>
	<rect id="Payment Method" rx="-0.500000" width="33.077274" height="22.367275" transform="translate(0.500000 0.500000)" fill="#FFFFFF" fill-opacity="0"/>
	<rect id="Payment Method" rx="-0.243409" width="33.590458" height="22.880457" transform="translate(0.243409 0.243409)" fill="#FFFFFF" fill-opacity="0"/>
	<rect id="BASE" rx="2.920909" width="34.077274" height="23.367275" fill="#FFFFFF" fill-opacity="1.000000"/>
	<rect id="BASE" x="0.242188" y="0.243652" rx="2.920909" width="33.590458" height="22.880457" stroke="#EAEBED" stroke-opacity="1.000000" stroke-width="0.486818"/>
	<path id="ApplePay" d="M8.13281 8.69727C8.58984 8.73584 9.04688 8.46582 9.33594 8.12305C9.61719 7.771 9.80078 7.29785 9.75391 6.81543C9.34766 6.83496 8.84766 7.08545 8.5625 7.43799C8.30078 7.74219 8.07422 8.23438 8.13281 8.69727ZM13.5703 14.9131L13.5703 7.38965L16.3594 7.38965C17.8008 7.38965 18.8047 8.39355 18.8047 9.86035C18.8047 11.3276 17.7812 12.3408 16.3203 12.3408L14.7266 12.3408L14.7266 14.9131L13.5703 14.9131ZM14.7305 8.37402L16.0586 8.37402C17.0586 8.37402 17.6328 8.91455 17.6328 9.86523C17.6328 10.8159 17.0586 11.3613 16.0547 11.3613L14.7305 11.3613L14.7305 8.37402ZM9.74219 8.78955C9.33984 8.76611 8.96875 8.91211 8.67188 9.03027C8.48047 9.10645 8.32031 9.1709 8.19531 9.1709C8.05859 9.1709 7.89062 9.10303 7.69922 9.02686C7.45312 8.92725 7.16797 8.81299 6.87109 8.81836C6.19141 8.82812 5.55469 9.21924 5.20703 9.8418C4.49219 11.0864 5.02344 12.9302 5.71484 13.9434C6.05078 14.4453 6.45703 14.9951 6.99219 14.9761C7.49609 14.9565 7.69531 14.6431 8.30469 14.6431C8.62109 14.6431 8.82031 14.7305 9.01172 14.8145C9.19531 14.8945 9.37109 14.9712 9.63281 14.9663C10.1836 14.9565 10.5312 14.4644 10.8711 13.9629C11.2578 13.3931 11.4141 12.8384 11.4258 12.8096C11.4141 12.7998 10.3555 12.3896 10.3477 11.1543C10.3359 10.1807 11.0859 9.6875 11.2031 9.60986C11.2109 9.60498 11.2188 9.60205 11.2188 9.6001C10.7422 8.88623 10 8.80908 9.74219 8.78955ZM22.6172 14.0103C22.3125 14.5991 21.6406 14.9707 20.918 14.9707C19.8438 14.9707 19.0977 14.3242 19.0977 13.3491C19.0977 12.3843 19.8203 11.8291 21.1602 11.7471L22.6016 11.6602L22.6016 11.2456C22.6016 10.6323 22.2031 10.2993 21.5 10.2993C20.918 10.2993 20.4922 10.6035 20.4062 11.0669L19.3672 11.0669C19.4023 10.0923 20.3086 9.38281 21.5312 9.38281C22.8516 9.38281 23.7109 10.0825 23.7109 11.168L23.7109 14.9131L22.6445 14.9131L22.6445 14.0103L22.6172 14.0103ZM27.2461 15.207C26.7852 16.5244 26.2539 16.959 25.1289 16.959C25.043 16.959 24.7578 16.9492 24.6914 16.9302L24.6914 16.0273C24.7617 16.0371 24.9375 16.0469 25.0273 16.0469C25.5391 16.0469 25.8242 15.8296 26 15.2651L26.1055 14.9321L24.1523 9.45508L25.3594 9.45508L26.7148 13.8994L26.7422 13.8994L28.0977 9.45508L29.2734 9.45508L27.2461 15.207ZM21.2188 14.0781C20.6055 14.0781 20.2148 13.7788 20.2148 13.3208C20.2148 12.8477 20.5898 12.5728 21.3086 12.5293L22.5938 12.4473L22.5938 12.8716C22.5938 13.5762 22 14.0781 21.2188 14.0781Z" clip-rule="evenodd" fill="#282739" fill-opacity="1.000000" fill-rule="evenodd"/>
</svg>
