<svg width="12.000000" height="12.000000" viewBox="0 0 12 12" fill="none" xmlns="http://www.w3.org/2000/svg" xmlns:xlink="http://www.w3.org/1999/xlink">
	<desc>
			Created with Pixso.
	</desc>
	<defs>
		<clipPath id="clip6_7569">
			<rect id="viber 1" rx="-0.500000" width="11.000000" height="11.000000" transform="translate(0.500000 0.500000)" fill="white" fill-opacity="0"/>
		</clipPath>
	</defs>
	<rect id="viber 1" rx="-0.500000" width="11.000000" height="11.000000" transform="translate(0.500000 0.500000)" fill="#FFFFFF" fill-opacity="0"/>
	<g clip-path="url(#clip6_7569)">
		<path id="Vector" d="M6.4 6.77C6.26 6.91 6.04 6.91 5.91 6.77L4.31 5.18C4.24 5.11 4.21 5.02 4.21 4.93C4.21 4.84 4.24 4.75 4.31 4.68L4.59 4.4L3.76 3.56L3.07 4.25C2.84 4.47 2.84 4.85 3.07 5.08L6 8.01C6.11 8.12 6.26 8.18 6.42 8.18C6.58 8.18 6.73 8.12 6.83 8.01L7.52 7.33L6.69 6.49L6.4 6.77Z" fill="#5D6C7B" fill-opacity="1.000000" fill-rule="nonzero"/>
		<path id="Vector" d="M11.49 4.23C11.49 3.1 11.05 2.04 10.25 1.24C9.44 0.44 8.38 0 7.26 0L4.75 0C4.75 0 4.75 0 4.75 0C3.62 0 2.56 0.44 1.75 1.24C0.95 2.04 0.51 3.1 0.51 4.23L0.51 6.2C0.51 7.08 0.78 7.92 1.28 8.63C1.73 9.26 2.32 9.76 3.02 10.07L3.02 11.2C3.02 11.79 3.35 12 3.63 12C3.83 12 4.03 11.9 4.23 11.7L5.49 10.44L7.26 10.44C8.38 10.44 9.44 10 10.25 9.19C11.05 8.39 11.49 7.33 11.49 6.2L11.49 4.23ZM8.27 7.57L7.33 8.51C7.09 8.75 6.77 8.88 6.42 8.88C6.07 8.88 5.75 8.75 5.51 8.51L2.58 5.58C2.07 5.07 2.07 4.25 2.58 3.75L3.51 2.82C3.58 2.75 3.66 2.71 3.76 2.71C3.85 2.71 3.94 2.75 4.01 2.82L5.34 4.15C5.41 4.21 5.44 4.3 5.44 4.4C5.44 4.49 5.41 4.58 5.34 4.64L5.05 4.93L6.16 6.03L6.44 5.75C6.58 5.61 6.8 5.61 6.94 5.75L8.27 7.08C8.33 7.14 8.37 7.23 8.37 7.33C8.37 7.42 8.33 7.51 8.27 7.57ZM5.73 3.41C5.73 3.21 5.89 3.06 6.08 3.06C7.3 3.06 8.3 4.05 8.3 5.27C8.3 5.46 8.14 5.62 7.94 5.62C7.75 5.62 7.59 5.46 7.59 5.27C7.59 4.43 6.92 3.76 6.08 3.76C5.89 3.76 5.73 3.6 5.73 3.41ZM9.45 5.62C9.26 5.62 9.1 5.46 9.1 5.27C9.1 4.46 8.78 3.7 8.22 3.14C7.65 2.57 6.89 2.25 6.08 2.25C5.89 2.25 5.73 2.1 5.73 1.9C5.73 1.71 5.89 1.55 6.08 1.55C7.08 1.55 8.01 1.94 8.71 2.64C9.42 3.34 9.8 4.27 9.8 5.27C9.8 5.46 9.64 5.62 9.45 5.62Z" fill="#5D6C7B" fill-opacity="1.000000" fill-rule="nonzero"/>
	</g>
</svg>
