<svg width="175.000000" height="20.000000" viewBox="0 0 175 20" fill="none" xmlns="http://www.w3.org/2000/svg" xmlns:xlink="http://www.w3.org/1999/xlink">
	<desc>
			Created with Pixso.
	</desc>
	<defs>
		<clipPath id="clip6_7596">
			<rect id="balance 2" rx="-0.500000" width="19.000000" height="19.000000" transform="translate(0.500000 0.500000)" fill="white" fill-opacity="0"/>
		</clipPath>
		<clipPath id="clip6_7598">
			<rect id="Icon / Outlined / Heart" rx="-0.500000" width="19.000000" height="19.000000" transform="translate(45.500000 0.500000)" fill="white" fill-opacity="0"/>
		</clipPath>
		<clipPath id="clip6_7600">
			<rect id="shopping-cart 2" rx="-0.500000" width="19.000000" height="19.000000" transform="translate(90.500000 0.500000)" fill="white" fill-opacity="0"/>
		</clipPath>
	</defs>
	<rect id="balance 2" rx="-0.500000" width="19.000000" height="19.000000" transform="translate(0.500000 0.500000)" fill="#FFFFFF" fill-opacity="0"/>
	<g clip-path="url(#clip6_7596)">
		<path id="Vector" d="M19.41 11.26L18.77 11.26L16.73 6.32C17.01 6.28 17.24 6.04 17.24 5.74C17.24 5.42 16.98 5.15 16.65 5.15L11.61 5.15C11.37 4.49 10.73 4.01 9.98 4.01C9.23 4.01 8.59 4.49 8.35 5.15L3.34 5.15C3.01 5.15 2.75 5.42 2.75 5.74C2.75 6.04 2.98 6.28 3.26 6.32L1.22 11.26L0.58 11.26C0.26 11.26 0 11.52 0 11.84C0 14.13 1.85 15.98 4.14 15.98C6.42 15.98 8.27 14.13 8.27 11.84C8.27 11.52 8.01 11.26 7.69 11.26L7.05 11.26L5.01 6.33L8.35 6.33C8.59 7 9.23 7.47 9.98 7.47C10.73 7.47 11.37 7 11.61 6.33L14.98 6.33L12.94 11.26L12.3 11.26C11.98 11.26 11.72 11.52 11.72 11.84C11.72 14.13 13.57 15.98 15.85 15.98C18.14 15.98 20 14.13 20 11.84C20 11.52 19.73 11.26 19.41 11.26ZM4.14 14.81C2.7 14.81 1.5 13.79 1.23 12.43L7.04 12.43C6.77 13.79 5.57 14.81 4.14 14.81ZM5.78 11.26L2.49 11.26L4.14 7.27L5.78 11.26ZM9.98 6.3C9.67 6.3 9.42 6.05 9.42 5.74C9.42 5.43 9.67 5.18 9.98 5.18C10.29 5.18 10.54 5.43 10.54 5.74C10.54 6.05 10.29 6.3 9.98 6.3ZM15.85 7.27L17.5 11.26L14.21 11.26L15.85 7.27ZM15.85 14.81C14.42 14.81 13.22 13.79 12.95 12.43L18.76 12.43C18.49 13.79 17.29 14.81 15.85 14.81Z" fill="#282739" fill-opacity="1.000000" fill-rule="nonzero"/>
		<path id="Vector" d="M18.19 15.26C17.53 15.72 16.72 15.98 15.85 15.98C14.99 15.98 14.18 15.72 13.52 15.26C13.45 15.21 13.38 15.16 13.31 15.11C13.18 15.01 13.06 14.9 12.95 14.79C12.59 14.44 12.3 14.02 12.09 13.56C11.85 13.04 11.72 12.46 11.72 11.84C11.72 11.54 11.94 11.3 12.24 11.26C12.26 11.26 12.28 11.26 12.3 11.26L12.94 11.26L13.06 10.98L13.28 10.43L13.33 10.33L13.69 9.44L13.81 9.15L14.11 8.43L14.21 8.19L14.23 8.15L14.33 7.91L14.54 7.38L14.59 7.26L14.98 6.33L11.61 6.33C11.39 6.93 10.84 7.39 10.18 7.46C10.12 7.47 10.05 7.47 9.98 7.47C9.92 7.47 9.87 7.47 9.81 7.47C9.14 7.4 8.57 6.94 8.35 6.33L5.01 6.33L5.4 7.26L5.44 7.37L5.66 7.91L5.76 8.15L5.78 8.19L5.88 8.43L6.18 9.15L6.3 9.44L6.66 10.33L6.72 10.45L6.93 10.98L7.05 11.26L7.69 11.26C7.71 11.26 7.73 11.26 7.75 11.26C8.05 11.3 8.27 11.54 8.27 11.84C8.27 12.46 8.14 13.04 7.9 13.56C7.69 14.02 7.4 14.44 7.04 14.79C6.93 14.9 6.81 15.01 6.68 15.11C6.61 15.16 6.54 15.21 6.47 15.26C5.81 15.72 5 15.98 4.14 15.98C3.27 15.98 2.46 15.72 1.8 15.26C1.73 15.21 1.66 15.16 1.59 15.11C1.46 15.01 1.34 14.9 1.23 14.79C0.47 14.04 0 12.99 0 11.84C0 11.52 0.26 11.26 0.58 11.26L1.22 11.26L1.33 10.98L1.73 10.03L1.97 9.44L2.39 8.43L2.49 8.19L2.6 7.91L2.87 7.26L3.26 6.32C3.16 6.31 3.07 6.27 2.99 6.21C2.85 6.1 2.75 5.93 2.75 5.74C2.75 5.42 3.01 5.15 3.34 5.15L8.35 5.15C8.38 5.07 8.42 4.98 8.46 4.9C8.76 4.37 9.33 4.01 9.98 4.01C10.62 4.01 11.19 4.36 11.49 4.88C11.54 4.97 11.58 5.06 11.61 5.15L16.65 5.15C16.98 5.15 17.24 5.42 17.24 5.74C17.24 5.93 17.14 6.1 17 6.21C16.92 6.27 16.83 6.31 16.73 6.32L17.12 7.26L17.39 7.91L17.5 8.19L17.6 8.43L18.02 9.44L18.26 10.03L18.66 10.98L18.77 11.26L19.41 11.26C19.73 11.26 20 11.52 20 11.84C20 12.99 19.52 14.04 18.76 14.79C18.65 14.9 18.53 15.01 18.4 15.11C18.33 15.16 18.26 15.21 18.19 15.26ZM17.23 14.47C16.83 14.68 16.39 14.8 15.91 14.81C15.89 14.81 15.87 14.81 15.85 14.81C15.84 14.81 15.82 14.81 15.8 14.81C15.33 14.8 14.88 14.68 14.48 14.47C13.7 14.06 13.13 13.32 12.95 12.43L18.76 12.43C18.58 13.32 18.01 14.06 17.23 14.47ZM16.71 11.26L17.5 11.26L17.39 10.98L16.63 9.15L16.63 9.15L16.33 8.43L15.85 7.27L15.38 8.43L15.21 8.84L15.08 9.15L14.98 9.39L14.59 10.33L14.33 10.98L14.21 11.26L16.71 11.26ZM3.66 8.43L3.36 9.15L3.36 9.15L2.6 10.98L2.49 11.26L5.78 11.26L5.66 10.98L5.4 10.33L5.01 9.39L4.91 9.15L4.78 8.84L4.61 8.43L4.14 7.27L3.66 8.43ZM2.95 12.43L1.23 12.43C1.41 13.32 1.98 14.06 2.76 14.47C3.16 14.68 3.6 14.8 4.08 14.81C4.1 14.81 4.12 14.81 4.14 14.81C4.15 14.81 4.17 14.81 4.19 14.81C4.66 14.8 5.11 14.68 5.51 14.47C6.29 14.06 6.86 13.32 7.04 12.43L2.95 12.43ZM9.98 6.3C9.67 6.3 9.42 6.05 9.42 5.74C9.42 5.43 9.67 5.18 9.98 5.18C10.29 5.18 10.54 5.43 10.54 5.74C10.54 6.05 10.29 6.3 9.98 6.3Z" fill="#282739" fill-opacity="1.000000" fill-rule="evenodd"/>
	</g>
	<rect id="Icon / Outlined / Heart" rx="-0.500000" width="19.000000" height="19.000000" transform="translate(45.500000 0.500000)" fill="#FFFFFF" fill-opacity="0"/>
	<g clip-path="url(#clip6_7598)">
		<path id="Vector" d="M62.99 5.51C62.73 4.9 62.35 4.35 61.88 3.88C61.41 3.42 60.86 3.05 60.25 2.79C59.62 2.53 58.94 2.39 58.26 2.39C57.3 2.39 56.37 2.66 55.55 3.16C55.36 3.28 55.17 3.41 55 3.56C54.82 3.41 54.64 3.28 54.44 3.16C53.63 2.66 52.69 2.39 51.74 2.39C51.05 2.39 50.38 2.53 49.75 2.79C49.14 3.05 48.58 3.42 48.11 3.88C47.64 4.35 47.26 4.9 47.01 5.51C46.73 6.14 46.6 6.82 46.6 7.51C46.6 8.17 46.73 8.85 46.99 9.54C47.21 10.12 47.53 10.72 47.93 11.33C48.57 12.29 49.44 13.29 50.53 14.3C52.34 15.99 54.12 17.15 54.2 17.2L54.66 17.5C54.87 17.63 55.13 17.63 55.33 17.5L55.79 17.2C55.87 17.15 57.66 15.99 59.46 14.3C60.55 13.29 61.42 12.29 62.07 11.33C62.47 10.72 62.78 10.12 63 9.54C63.26 8.85 63.4 8.17 63.4 7.51C63.4 6.82 63.26 6.14 62.99 5.51ZM55 15.94C55 15.94 48.07 11.46 48.07 7.51C48.07 5.51 49.71 3.89 51.74 3.89C53.16 3.89 54.39 4.69 55 5.86C55.6 4.69 56.84 3.89 58.26 3.89C60.28 3.89 61.92 5.51 61.92 7.51C61.92 11.46 55 15.94 55 15.94Z" fill="#282739" fill-opacity="1.000000" fill-rule="nonzero"/>
	</g>
	<rect id="shopping-cart 2" rx="-0.500000" width="19.000000" height="19.000000" transform="translate(90.500000 0.500000)" fill="#FFFFFF" fill-opacity="0"/>
	<g clip-path="url(#clip6_7600)">
		<path id="Vector" d="M109.15 7.25L105 7.25L102.67 1.92C102.54 1.62 102.19 1.49 101.9 1.62C101.6 1.75 101.47 2.09 101.6 2.39L103.72 7.25L96.27 7.25L98.39 2.39C98.52 2.09 98.39 1.75 98.09 1.62C97.8 1.49 97.45 1.62 97.32 1.92L94.99 7.25L90.84 7.25C90.3 7.25 89.9 7.74 90.01 8.26L92.2 17.77C92.29 18.15 92.63 18.42 93.03 18.42L106.96 18.42C107.36 18.42 107.7 18.15 107.79 17.77L109.98 8.26C110.09 7.74 109.69 7.25 109.15 7.25ZM95.1 9.05C95.02 9.05 94.94 9.03 94.87 9C94.57 8.87 94.44 8.52 94.57 8.23L95.01 7.22L96.28 7.22L95.64 8.69C95.54 8.91 95.33 9.05 95.1 9.05ZM97.07 15.3C97.07 15.62 96.8 15.88 96.48 15.88C96.16 15.88 95.89 15.62 95.89 15.3L95.89 11C95.89 10.68 96.16 10.41 96.48 10.41C96.8 10.41 97.07 10.68 97.07 11L97.07 15.3ZM100.58 15.3C100.58 15.62 100.32 15.88 100 15.88C99.67 15.88 99.41 15.62 99.41 15.3L99.41 11C99.41 10.68 99.67 10.41 100 10.41C100.32 10.41 100.58 10.68 100.58 11L100.58 15.3ZM104.1 15.3C104.1 15.62 103.84 15.88 103.51 15.88C103.19 15.88 102.93 15.62 102.93 15.3L102.93 11C102.93 10.68 103.19 10.41 103.51 10.41C103.84 10.41 104.1 10.68 104.1 11L104.1 15.3ZM105.12 9C105.05 9.03 104.97 9.05 104.89 9.05C104.66 9.05 104.45 8.91 104.35 8.69L103.71 7.22L104.98 7.22L105.43 8.23C105.55 8.52 105.42 8.87 105.12 9Z" fill="#6F73EE" fill-opacity="1.000000" fill-rule="nonzero"/>
	</g>
	<path id="Корзина" d="M121.09 14.86L121.09 5.06L122.78 5.06L122.78 9.14L126.42 5.06L128.42 5.06L124.28 9.65L128.63 14.86L126.59 14.86L122.78 10.28L122.78 14.86L121.09 14.86ZM158.22 7.93L153.85 12.11L153.85 8.42L152.37 8.42L152.37 15.35L156.74 11.17L156.74 14.86L158.22 14.86L158.22 7.93ZM143.48 9.81Q143.91 10.55 143.91 11.64Q143.91 12.7 143.48 13.47C143.19 13.98 142.81 14.37 142.33 14.64Q142.06 14.78 141.78 14.88Q141.3 15.03 140.78 15.03Q140.14 15.03 139.62 14.78Q139.48 14.71 139.35 14.62C139.04 14.41 138.78 14.12 138.58 13.77L138.58 17.94L137.05 17.94L137.05 8.42L138.58 8.42L138.58 9.51C138.78 9.16 139.04 8.87 139.35 8.66C139.76 8.38 140.23 8.24 140.78 8.24C141.34 8.24 141.85 8.37 142.33 8.64C142.81 8.91 143.19 9.3 143.48 9.81ZM138.58 11.64C138.58 11.2 138.67 10.83 138.84 10.53Q139.09 10.14 139.44 9.92Q139.49 9.89 139.54 9.86Q139.87 9.68 140.22 9.64Q140.31 9.62 140.41 9.62C140.77 9.62 141.09 9.7 141.38 9.86C141.67 10.01 141.9 10.24 142.08 10.55C142.25 10.85 142.34 11.21 142.34 11.64C142.34 12.07 142.25 12.43 142.08 12.73C141.9 13.03 141.67 13.26 141.38 13.42C141.09 13.58 140.77 13.66 140.41 13.66C140.11 13.66 139.82 13.58 139.54 13.43C139.26 13.27 139.03 13.04 138.84 12.75C138.67 12.45 138.58 12.08 138.58 11.64ZM169.47 9.88C169.28 9.97 169.14 10.05 169.03 10.11L168.42 9.04C168.71 8.86 169.07 8.69 169.52 8.52C169.97 8.35 170.48 8.27 171.06 8.27Q171.86 8.27 172.46 8.5C172.86 8.65 173.18 8.88 173.4 9.18C173.63 9.47 173.75 9.84 173.75 10.27L173.75 14.86L172.27 14.86L172.27 13.95C172.24 14 172.2 14.05 172.17 14.1C171.95 14.39 171.66 14.62 171.3 14.78C170.94 14.93 170.53 15 170.08 15C169.66 15 169.28 14.93 168.93 14.78C168.6 14.63 168.33 14.41 168.12 14.12C167.93 13.82 167.83 13.45 167.83 13.01C167.83 12.57 167.94 12.2 168.16 11.88C168.39 11.56 168.71 11.32 169.12 11.15C169.54 10.98 170.03 10.9 170.59 10.9Q171.15 10.9 171.58 11.04C171.85 11.12 172.08 11.22 172.27 11.33L172.27 10.44C172.27 10.14 172.14 9.91 171.89 9.75C171.65 9.58 171.35 9.5 170.99 9.5C170.68 9.5 170.4 9.54 170.14 9.61C169.89 9.68 169.66 9.77 169.47 9.88ZM172.27 12.19C172.13 12.12 171.99 12.06 171.85 12.02C171.55 11.92 171.2 11.86 170.81 11.86C170.49 11.86 170.23 11.91 170.01 12C169.8 12.09 169.63 12.21 169.52 12.38C169.41 12.54 169.35 12.73 169.35 12.96C169.35 13.15 169.41 13.32 169.51 13.45C169.62 13.58 169.77 13.68 169.94 13.75C170.13 13.82 170.33 13.85 170.54 13.85C170.87 13.85 171.17 13.8 171.43 13.7C171.69 13.6 171.89 13.43 172.04 13.21C172.19 12.98 172.27 12.68 172.27 12.3L172.27 12.19ZM129.16 13.39C128.86 12.88 128.72 12.29 128.72 11.64C128.72 10.98 128.86 10.39 129.16 9.89C129.47 9.39 129.89 8.99 130.41 8.71Q130.57 8.63 130.73 8.56Q131.4 8.28 132.19 8.28Q133.08 8.28 133.8 8.63Q133.89 8.67 133.97 8.71C134.49 8.99 134.9 9.39 135.2 9.89C135.5 10.39 135.66 10.98 135.66 11.64Q135.66 12.42 135.36 13.07Q135.29 13.24 135.2 13.39C134.9 13.89 134.49 14.29 133.97 14.58C133.44 14.86 132.85 15 132.19 15Q131.35 15 130.65 14.7Q130.53 14.64 130.41 14.58C129.89 14.29 129.47 13.89 129.16 13.39ZM147.91 11.64L147.91 10.97C148.29 10.97 148.56 10.9 148.73 10.76C148.89 10.61 148.98 10.43 148.98 10.21Q148.98 10.05 148.91 9.92Q148.85 9.79 148.73 9.69C148.56 9.56 148.33 9.5 148.05 9.5C147.82 9.5 147.62 9.54 147.47 9.64C147.31 9.72 147.19 9.83 147.1 9.97C147.03 10.1 146.99 10.24 146.99 10.39L145.55 10.39Q145.55 9.98 145.69 9.63Q145.76 9.47 145.86 9.32C146.07 9 146.36 8.75 146.74 8.56C147.12 8.37 147.55 8.28 148.04 8.28C148.5 8.28 148.91 8.36 149.27 8.52C149.64 8.68 149.92 8.89 150.13 9.16C150.33 9.43 150.43 9.73 150.43 10.06C150.43 10.52 150.22 10.91 149.79 11.22C149.69 11.29 149.57 11.35 149.45 11.41C149.63 11.47 149.81 11.55 149.96 11.64C150.46 11.93 150.71 12.37 150.71 12.97Q150.71 13.38 150.56 13.73Q150.47 13.9 150.35 14.06C150.12 14.36 149.79 14.59 149.38 14.76C148.97 14.92 148.52 15 148.01 15Q146.8 15 146.08 14.41Q146.07 14.4 146.05 14.38Q145.76 14.13 145.57 13.81Q145.29 13.35 145.23 12.76L146.71 12.76Q146.77 13.04 146.92 13.27Q147 13.4 147.1 13.5C147.31 13.71 147.61 13.81 148.01 13.81C148.27 13.81 148.5 13.77 148.68 13.7C148.87 13.62 149.01 13.52 149.1 13.38C149.21 13.24 149.26 13.08 149.26 12.9C149.26 12.69 149.21 12.53 149.1 12.4C149 12.26 148.85 12.15 148.64 12.07C148.45 12 148.2 11.96 147.91 11.96L147.91 11.64ZM160.21 14.86L160.21 8.42L161.7 8.42L161.7 10.83L164.99 10.83L164.99 8.42L166.47 8.42L166.47 14.86L164.99 14.86L164.99 12.09L161.7 12.09L161.7 14.86L160.21 14.86ZM130.52 10.58Q130.27 11.04 130.27 11.64C130.27 12.04 130.35 12.4 130.52 12.7C130.69 13 130.92 13.24 131.21 13.42C131.5 13.59 131.82 13.67 132.19 13.67C132.55 13.67 132.88 13.59 133.17 13.42C133.46 13.24 133.69 13 133.85 12.7C134.02 12.4 134.11 12.04 134.11 11.64Q134.11 11.04 133.85 10.58C133.69 10.27 133.46 10.03 133.17 9.86C132.88 9.69 132.55 9.61 132.19 9.61C131.82 9.61 131.5 9.69 131.21 9.86C130.92 10.03 130.69 10.27 130.52 10.58Z" fill="#282739" fill-opacity="1.000000" fill-rule="evenodd"/>
</svg>
