<svg width="16.800781" height="15.199707" viewBox="0 0 16.8008 15.1997" fill="none" xmlns="http://www.w3.org/2000/svg" xmlns:xlink="http://www.w3.org/1999/xlink">
	<desc>
			Created with Pixso.
	</desc>
	<defs/>
	<path id="Vector" d="M16.39 3.11C16.13 2.5 15.75 1.95 15.28 1.48C14.81 1.02 14.26 0.65 13.65 0.39C13.02 0.13 12.34 -0.01 11.66 0C10.7 0 9.76 0.26 8.95 0.76C8.76 0.88 8.57 1.01 8.4 1.16C8.22 1.01 8.04 0.88 7.84 0.76C7.03 0.26 6.09 0 5.14 0C4.44 0 3.78 0.13 3.14 0.39C2.53 0.65 1.98 1.02 1.51 1.48C1.04 1.95 0.66 2.5 0.41 3.11C0.13 3.74 0 4.42 0 5.11C0 5.77 0.13 6.45 0.39 7.14C0.61 7.72 0.92 8.32 1.33 8.93C1.96 9.89 2.84 10.89 3.93 11.9C5.74 13.59 7.52 14.75 7.6 14.8L8.06 15.1C8.26 15.23 8.53 15.23 8.73 15.1L9.19 14.8C9.27 14.75 11.05 13.59 12.86 11.9C13.95 10.89 14.82 9.89 15.46 8.93C15.87 8.32 16.18 7.72 16.4 7.14C16.66 6.45 16.8 5.77 16.8 5.11C16.8 4.42 16.66 3.74 16.39 3.11ZM8.4 13.54C8.4 13.54 1.47 9.06 1.47 5.11C1.47 3.11 3.11 1.49 5.14 1.49C6.56 1.49 7.79 2.29 8.4 3.46C9 2.29 10.24 1.49 11.66 1.49C13.68 1.49 15.32 3.11 15.32 5.11C15.32 9.06 8.4 13.54 8.4 13.54Z" fill="#6F73EE" fill-opacity="1.000000" fill-rule="nonzero"/>
</svg>
