<svg width="151.121094" height="44.775879" viewBox="0 0 151.121 44.7759" fill="none" xmlns="http://www.w3.org/2000/svg" xmlns:xlink="http://www.w3.org/1999/xlink">
	<desc>
			Created with Pixso.
	</desc>
	<defs>
		<linearGradient x1="24.403353" y1="9.748135" x2="5.616970" y2="28.534508" id="paint_linear_6_11287_0" gradientUnits="userSpaceOnUse">
			<stop stop-color="#00A0FF"/>
			<stop offset="0.006574" stop-color="#00A1FF"/>
			<stop offset="0.260100" stop-color="#00BEFF"/>
			<stop offset="0.512200" stop-color="#00D2FF"/>
			<stop offset="0.760400" stop-color="#00DFFF"/>
			<stop offset="1.000000" stop-color="#00E3FF"/>
		</linearGradient>
		<linearGradient x1="37.874607" y1="22.388470" x2="10.788408" y2="22.388470" id="paint_linear_6_11290_0" gradientUnits="userSpaceOnUse">
			<stop stop-color="#FFE000"/>
			<stop offset="0.408700" stop-color="#FFBD00"/>
			<stop offset="0.775400" stop-color="#FFA500"/>
			<stop offset="1.000000" stop-color="#FF9C00"/>
		</linearGradient>
		<linearGradient x1="27.794241" y1="24.956968" x2="2.318533" y2="50.432678" id="paint_linear_6_11293_0" gradientUnits="userSpaceOnUse">
			<stop stop-color="#FF3A44"/>
			<stop offset="1.000000" stop-color="#C31162"/>
		</linearGradient>
		<linearGradient x1="8.170889" y1="0.195498" x2="19.546816" y2="11.571424" id="paint_linear_6_11296_0" gradientUnits="userSpaceOnUse">
			<stop stop-color="#32A071"/>
			<stop offset="0.068500" stop-color="#2DA771"/>
			<stop offset="0.476200" stop-color="#15CF74"/>
			<stop offset="0.800900" stop-color="#06E775"/>
			<stop offset="1.000000" stop-color="#00F076"/>
		</linearGradient>
		<linearGradient x1="37.877392" y1="22.388807" x2="10.790705" y2="22.388807" id="paint_linear_6_11300_0" gradientUnits="userSpaceOnUse">
			<stop stop-color="#CCB300"/>
			<stop offset="0.408700" stop-color="#CC9700"/>
			<stop offset="0.775400" stop-color="#CC8400"/>
			<stop offset="1.000000" stop-color="#CC7D00"/>
		</linearGradient>
		<linearGradient x1="27.793486" y1="24.956976" x2="2.317772" y2="50.432693" id="paint_linear_6_11303_0" gradientUnits="userSpaceOnUse">
			<stop stop-color="#CC2E36"/>
			<stop offset="1.000000" stop-color="#9C0E4E"/>
		</linearGradient>
		<linearGradient x1="24.403389" y1="9.748625" x2="5.616953" y2="28.534998" id="paint_linear_6_11307_0" gradientUnits="userSpaceOnUse">
			<stop stop-color="#008DE0"/>
			<stop offset="0.006574" stop-color="#008DE0"/>
			<stop offset="0.260100" stop-color="#00A7E0"/>
			<stop offset="0.512200" stop-color="#00B8E0"/>
			<stop offset="0.760400" stop-color="#00C4E0"/>
			<stop offset="1.000000" stop-color="#00C7E0"/>
		</linearGradient>
		<linearGradient x1="27.793962" y1="24.957569" x2="2.317493" y2="50.432610" id="paint_linear_6_11310_0" gradientUnits="userSpaceOnUse">
			<stop stop-color="#E0333C"/>
			<stop offset="1.000000" stop-color="#AB0F56"/>
		</linearGradient>
		<linearGradient x1="37.875919" y1="22.388786" x2="10.789692" y2="22.388786" id="paint_linear_6_11314_0" gradientUnits="userSpaceOnUse">
			<stop stop-color="#E0C500"/>
			<stop offset="0.408700" stop-color="#E0A600"/>
			<stop offset="0.775400" stop-color="#E09100"/>
			<stop offset="1.000000" stop-color="#E08900"/>
		</linearGradient>
		<linearGradient x1="37.876354" y1="22.388329" x2="10.790173" y2="22.388329" id="paint_linear_6_11318_0" gradientUnits="userSpaceOnUse">
			<stop stop-color="#FFE840"/>
			<stop offset="0.408700" stop-color="#FFCE40"/>
			<stop offset="0.775400" stop-color="#FFBC40"/>
			<stop offset="1.000000" stop-color="#FFB540"/>
		</linearGradient>
		<linearGradient x1="24.403372" y1="9.748184" x2="5.616976" y2="28.534573" id="paint_linear_6_11322_0" gradientUnits="userSpaceOnUse">
			<stop stop-color="#40B8FF"/>
			<stop offset="0.006574" stop-color="#40B9FF"/>
			<stop offset="0.260100" stop-color="#40CEFF"/>
			<stop offset="0.512200" stop-color="#40DDFF"/>
			<stop offset="0.760400" stop-color="#40E7FF"/>
			<stop offset="1.000000" stop-color="#40EAFF"/>
		</linearGradient>
		<linearGradient x1="8.170686" y1="0.196141" x2="19.546619" y2="11.572074" id="paint_linear_6_11326_0" gradientUnits="userSpaceOnUse">
			<stop stop-color="#65B895"/>
			<stop offset="0.068500" stop-color="#62BD95"/>
			<stop offset="0.476200" stop-color="#50DB97"/>
			<stop offset="0.800900" stop-color="#44ED98"/>
			<stop offset="1.000000" stop-color="#40F498"/>
		</linearGradient>
	</defs>
	<path id="path13552" d="M145.52 44.77L5.59 44.77C2.51 44.77 0 42.25 0 39.17L0 5.59C0 2.51 2.51 0 5.59 0L145.52 0C148.6 0 151.12 2.51 151.12 5.59L151.12 39.17C151.12 42.25 148.6 44.77 145.52 44.77Z" fill="#FFFFFF" fill-opacity="1.000000" fill-rule="nonzero"/>
	<path id="path13556" d="M119.7 33.58L121.79 33.58L121.79 19.58L119.7 19.58L119.7 33.58ZM138.52 24.62L136.12 30.69L136.05 30.69L133.57 24.62L131.32 24.62L135.04 33.1L132.92 37.82L135.1 37.82L140.84 24.62L138.52 24.62ZM126.67 31.99C125.99 31.99 125.03 31.64 125.03 30.8C125.03 29.72 126.22 29.3 127.25 29.3C128.17 29.3 128.6 29.5 129.16 29.77C128.99 31.07 127.88 31.99 126.67 31.99ZM126.92 24.32C125.41 24.32 123.84 24.98 123.19 26.46L125.05 27.23C125.44 26.46 126.18 26.21 126.96 26.21C128.04 26.21 129.14 26.86 129.16 28.01L129.16 28.15C128.78 27.94 127.97 27.61 126.98 27.61C124.98 27.61 122.94 28.71 122.94 30.76C122.94 32.63 124.58 33.84 126.42 33.84C127.82 33.84 128.6 33.21 129.09 32.47L129.16 32.47L129.16 33.55L131.17 33.55L131.17 28.19C131.17 25.7 129.32 24.32 126.92 24.32ZM114.02 26.33L111.04 26.33L111.04 21.53L114.02 21.53C115.58 21.53 116.46 22.82 116.46 23.93C116.46 25.01 115.58 26.33 114.02 26.33ZM113.96 19.58L108.96 19.58L108.96 33.58L111.04 33.58L111.04 28.27L113.96 28.27C116.28 28.27 118.55 26.6 118.55 23.93C118.55 21.26 116.28 19.58 113.96 19.58ZM86.67 31.99C85.23 31.99 84.02 30.78 84.02 29.12C84.02 27.44 85.23 26.22 86.67 26.22C88.09 26.22 89.21 27.44 89.21 29.12C89.21 30.78 88.09 31.99 86.67 31.99ZM89.07 25.41L89 25.41C88.53 24.85 87.62 24.34 86.49 24.34C84.11 24.34 81.92 26.43 81.92 29.12C81.92 31.79 84.11 33.86 86.49 33.86C87.62 33.86 88.53 33.36 89 32.78L89.07 32.78L89.07 33.47C89.07 35.29 88.09 36.26 86.52 36.26C85.25 36.26 84.45 35.34 84.12 34.57L82.3 35.33C82.83 36.59 84.21 38.14 86.52 38.14C88.98 38.14 91.05 36.7 91.05 33.18L91.05 24.63L89.07 24.63L89.07 25.41ZM92.49 33.58L94.58 33.58L94.58 19.58L92.49 19.58L92.49 33.58ZM97.67 28.96C97.62 27.12 99.09 26.18 100.16 26.18C100.99 26.18 101.69 26.6 101.93 27.19L97.67 28.96ZM104.16 27.37C103.77 26.31 102.55 24.34 100.09 24.34C97.63 24.34 95.59 26.27 95.59 29.1C95.59 31.77 97.62 33.86 100.32 33.86C102.5 33.86 103.77 32.53 104.29 31.75L102.66 30.67C102.12 31.47 101.38 31.99 100.32 31.99C99.26 31.99 98.5 31.5 98.01 30.55L104.38 27.91L104.16 27.37ZM53.44 25.8L53.44 27.82L58.28 27.82C58.13 28.96 57.75 29.79 57.17 30.37C56.47 31.07 55.37 31.85 53.44 31.85C50.47 31.85 48.14 29.45 48.14 26.47C48.14 23.5 50.47 21.1 53.44 21.1C55.05 21.1 56.22 21.73 57.08 22.54L58.51 21.12C57.3 19.96 55.7 19.08 53.44 19.08C49.37 19.08 45.94 22.4 45.94 26.47C45.94 30.55 49.37 33.86 53.44 33.86C55.64 33.86 57.3 33.14 58.6 31.79C59.94 30.46 60.35 28.58 60.35 27.07C60.35 26.6 60.32 26.16 60.24 25.8L53.44 25.8ZM65.84 31.99C64.4 31.99 63.16 30.8 63.16 29.1C63.16 27.39 64.4 26.22 65.84 26.22C67.29 26.22 68.53 27.39 68.53 29.1C68.53 30.8 67.29 31.99 65.84 31.99ZM65.84 24.34C63.21 24.34 61.07 26.34 61.07 29.1C61.07 31.85 63.21 33.86 65.84 33.86C68.48 33.86 70.62 31.85 70.62 29.1C70.62 26.34 68.48 24.34 65.84 24.34ZM76.27 31.99C74.83 31.99 73.58 30.8 73.58 29.1C73.58 27.39 74.83 26.22 76.27 26.22C77.71 26.22 78.96 27.39 78.96 29.1C78.96 30.8 77.71 31.99 76.27 31.99ZM76.27 24.34C73.64 24.34 71.49 26.34 71.49 29.1C71.49 31.85 73.64 33.86 76.27 33.86C78.9 33.86 81.05 31.85 81.05 29.1C81.05 26.34 78.9 24.34 76.27 24.34Z" fill="#282739" fill-opacity="1.000000" fill-rule="nonzero"/>
	<path id="path13580" d="M11.76 36.25L11.68 36.17C11.35 35.83 11.16 35.29 11.16 34.6L11.16 34.76L11.16 10C11.16 10 11.16 10 11.16 10C11.16 10 11.16 10 11.16 10L11.16 10.17C11.16 9.42 11.38 8.85 11.76 8.51L25.63 22.38L11.76 36.25ZM11.16 10C11.16 9.94 11.16 9.88 11.16 9.82C11.16 9.88 11.16 9.94 11.16 10ZM11.16 9.81C11.16 9.81 11.16 9.81 11.16 9.81C11.16 9.81 11.16 9.81 11.16 9.81ZM11.16 9.81C11.16 9.81 11.16 9.81 11.16 9.81C11.16 9.81 11.16 9.81 11.16 9.81Z" fill="url(#paint_linear_6_11287_0)" fill-opacity="1.000000" fill-rule="nonzero"/>
	<path id="path13600" d="M30.25 27.17L30.35 27.11L35.83 24C36.35 23.7 36.7 23.34 36.88 22.96C36.7 23.34 36.35 23.7 35.83 24L30.35 27.11L30.25 27.17ZM30.25 27.01L25.63 22.38L30.25 17.76L35.83 20.93C36.54 21.33 36.94 21.85 37.01 22.38C37.01 22.38 37.01 22.38 37.01 22.38C36.94 22.91 36.54 23.43 35.83 23.84L30.25 27.01Z" fill="url(#paint_linear_6_11290_0)" fill-opacity="1.000000" fill-rule="nonzero"/>
	<path id="path13616" d="M12.75 36.78C12.36 36.78 12.03 36.65 11.76 36.41L11.76 36.41C12.03 36.65 12.37 36.78 12.75 36.78C12.78 36.78 12.82 36.78 12.85 36.78C12.82 36.78 12.78 36.78 12.75 36.78ZM12.75 36.61C12.37 36.62 12.03 36.49 11.76 36.25L11.76 36.25L25.63 22.38L30.25 27.01L14.01 36.24C13.56 36.49 13.13 36.61 12.75 36.61ZM11.76 36.41C11.73 36.39 11.71 36.37 11.69 36.34L11.76 36.41Z" fill="url(#paint_linear_6_11293_0)" fill-opacity="1.000000" fill-rule="nonzero"/>
	<path id="path13638" d="M25.63 22.38L11.76 8.51C12.02 8.28 12.36 8.15 12.75 8.15C13.13 8.15 13.55 8.27 14.01 8.53L30.25 17.76L25.63 22.38ZM30.36 17.65L14.01 8.36C13.55 8.11 13.13 7.99 12.75 7.99C12.75 7.99 12.75 7.99 12.75 7.99C12.75 7.99 12.75 7.99 12.75 7.99C13.13 7.99 13.55 8.11 14.01 8.36L30.36 17.65Z" fill="url(#paint_linear_6_11296_0)" fill-opacity="1.000000" fill-rule="nonzero"/>
	<path id="path13640" d="M12.85 36.78C13.21 36.76 13.6 36.64 14.01 36.4L30.25 27.17L14.01 36.4C13.6 36.64 13.21 36.76 12.85 36.78ZM11.76 36.42L11.76 36.41C11.76 36.41 11.76 36.41 11.76 36.42ZM11.69 36.34L11.68 36.34L11.68 36.33C11.68 36.34 11.68 36.34 11.69 36.34Z" fill="#FFFFFF" fill-opacity="1.000000" fill-rule="nonzero"/>
	<path id="path13660" d="M30.25 27.17L30.36 27.11L30.25 27.17Z" fill="url(#paint_linear_6_11300_0)" fill-opacity="1.000000" fill-rule="nonzero"/>
	<path id="path13676" d="M12.75 36.78C12.36 36.78 12.03 36.65 11.76 36.41L11.76 36.41C11.76 36.41 11.76 36.41 11.76 36.41L11.69 36.34C11.68 36.34 11.68 36.34 11.68 36.33L11.76 36.25C12.03 36.49 12.36 36.62 12.75 36.61C13.13 36.61 13.55 36.49 14.01 36.24L30.25 27.01L30.36 27.11L30.25 27.17L14.01 36.4C13.6 36.63 13.21 36.76 12.85 36.78C12.82 36.78 12.78 36.78 12.75 36.78Z" fill="url(#paint_linear_6_11303_0)" fill-opacity="1.000000" fill-rule="nonzero"/>
	<path id="path13678" d="M11.68 36.33C11.35 35.99 11.16 35.45 11.16 34.76L11.16 34.76C11.16 35.45 11.35 35.99 11.68 36.33L11.68 36.33Z" fill="#FFFFFF" fill-opacity="1.000000" fill-rule="nonzero"/>
	<path id="path13702" d="M11.68 36.33C11.35 35.99 11.16 35.46 11.16 34.76L11.16 34.6C11.16 35.29 11.35 35.83 11.68 36.17L11.76 36.25L11.68 36.33Z" fill="url(#paint_linear_6_11307_0)" fill-opacity="1.000000" fill-rule="nonzero"/>
	<path id="path13718" d="M11.68 36.33L11.76 36.25L11.76 36.25L11.68 36.33Z" fill="url(#paint_linear_6_11310_0)" fill-opacity="1.000000" fill-rule="nonzero"/>
	<path id="path13720" d="M36.88 22.96C36.96 22.77 37.01 22.58 37.01 22.38C37.01 22.38 37.01 22.38 37.01 22.38C37.01 22.58 36.96 22.77 36.88 22.96Z" fill="#FFFFFF" fill-opacity="1.000000" fill-rule="nonzero"/>
	<path id="path13740" d="M30.36 27.11L30.25 27.01L35.83 23.84C36.54 23.43 36.94 22.91 37.01 22.38C37.01 22.58 36.96 22.77 36.88 22.96C36.71 23.34 36.35 23.7 35.83 24L30.36 27.11Z" fill="url(#paint_linear_6_11314_0)" fill-opacity="1.000000" fill-rule="nonzero"/>
	<path id="path13742" d="M37.01 22.38L37.01 22.38C37.01 21.8 36.62 21.21 35.83 20.77L30.36 17.65L30.36 17.65L30.36 17.65L35.83 20.77C36.62 21.21 37.01 21.8 37.01 22.38Z" fill="#282739" fill-opacity="1.000000" fill-rule="nonzero"/>
	<path id="path13762" d="M37.01 22.38C36.94 21.85 36.54 21.33 35.83 20.93L30.25 17.76L30.36 17.65L30.36 17.65L35.83 20.77C36.62 21.21 37.01 21.8 37.01 22.38Z" fill="url(#paint_linear_6_11318_0)" fill-opacity="1.000000" fill-rule="nonzero"/>
	<path id="path13764" d="M11.16 10C11.16 10 11.16 10 11.16 10C11.16 10 11.16 10 11.16 10ZM11.16 9.82C11.16 9.82 11.16 9.82 11.16 9.81C11.16 9.82 11.16 9.82 11.16 9.82ZM11.16 9.81C11.16 9.81 11.16 9.81 11.16 9.81C11.16 9.81 11.16 9.81 11.16 9.81ZM11.16 9.81C11.23 8.66 11.85 7.99 12.74 7.99C12.35 7.99 12.02 8.12 11.76 8.35L11.76 8.35L11.76 8.35C11.73 8.38 11.7 8.41 11.68 8.43C11.38 8.74 11.2 9.21 11.16 9.81Z" fill="#282739" fill-opacity="1.000000" fill-rule="nonzero"/>
	<path id="path13788" d="M11.16 10.17L11.16 10C11.16 10 11.16 10 11.16 10C11.16 10 11.16 10 11.16 10C11.16 9.94 11.16 9.88 11.16 9.82C11.16 9.82 11.16 9.81 11.16 9.81C11.16 9.81 11.16 9.81 11.16 9.81C11.16 9.81 11.16 9.81 11.16 9.81C11.16 9.81 11.16 9.81 11.16 9.81C11.2 9.21 11.38 8.74 11.68 8.43L11.76 8.51C11.38 8.85 11.16 9.42 11.16 10.17ZM11.76 8.35L11.76 8.35C11.76 8.35 11.76 8.35 11.76 8.35Z" fill="url(#paint_linear_6_11322_0)" fill-opacity="1.000000" fill-rule="nonzero"/>
	<path id="path13790" d="M12.74 7.99C12.74 7.99 12.75 7.99 12.75 7.99C12.75 7.99 12.74 7.99 12.74 7.99Z" fill="#282739" fill-opacity="1.000000" fill-rule="nonzero"/>
	<path id="path13812" d="M30.25 17.76L14.01 8.53C13.55 8.27 13.13 8.15 12.75 8.15C12.36 8.15 12.02 8.28 11.76 8.51L11.68 8.43C11.71 8.4 11.73 8.38 11.76 8.35C11.76 8.35 11.76 8.35 11.76 8.35C12.02 8.12 12.36 7.99 12.74 7.99C12.74 7.99 12.74 7.99 12.75 7.99C12.75 7.99 12.75 7.99 12.75 7.99C13.13 7.99 13.55 8.11 14.01 8.36L30.36 17.65L30.36 17.66L30.25 17.76Z" fill="url(#paint_linear_6_11326_0)" fill-opacity="1.000000" fill-rule="nonzero"/>
	<path id="path13814" d="M48.69 11.15C48.7 12.21 48.49 13.07 48.05 13.72L51.45 13.72L51.45 8.65L48.69 8.65L48.69 11.15ZM47.14 15.97L46.32 15.97L46.32 13.72L46.97 13.72C47.55 13.22 47.84 12.36 47.83 11.15L47.83 7.83L52.31 7.83L52.31 13.72L53.06 13.72L53.06 15.97L52.23 15.97L52.23 14.55L47.14 14.55L47.14 15.97Z" fill="#282739" fill-opacity="1.000000" fill-rule="nonzero"/>
	<path id="path13816" d="M48.69 11.15L48.57 11.15L48.58 11.24C48.58 12.25 48.37 13.05 47.96 13.66L47.84 13.83L51.56 13.83L51.56 8.54L48.57 8.54L48.57 11.15L48.57 11.15L48.69 11.15L48.8 11.15L48.8 8.77L51.33 8.77L51.33 13.61L48.05 13.61L48.05 13.72L48.14 13.78C48.58 13.13 48.8 12.28 48.8 11.24L48.8 11.15L48.69 11.15L48.8 11.15L48.69 11.15ZM47.14 15.97L47.14 15.86L46.42 15.86L46.42 13.83L46.97 13.83L47.01 13.83L47.04 13.81C47.65 13.28 47.94 12.41 47.94 11.22L47.94 11.15L47.94 11.15L47.94 7.94L52.2 7.94L52.2 13.83L52.95 13.83L52.95 15.86L52.35 15.86L52.35 14.55L52.35 14.43L47.03 14.43L47.03 15.97L47.14 15.97L47.14 15.86L47.14 15.97L47.25 15.97L47.25 14.66L52.12 14.66L52.12 15.97L52.12 16.08L53.06 16.08L53.17 16.08L53.17 13.61L52.42 13.61L52.42 7.72L47.71 7.72L47.71 11.15L47.71 11.15L47.71 11.22C47.71 12.38 47.43 13.18 46.9 13.64L46.97 13.72L46.97 13.61L46.32 13.61L46.2 13.61L46.2 16.08L47.14 16.08L47.25 16.08L47.25 15.97L47.14 15.97Z" fill="#282739" fill-opacity="1.000000" fill-rule="nonzero"/>
	<path id="path13818" d="M55.5 13.12C56 13.62 56.6 13.87 57.33 13.87C58.05 13.87 58.65 13.62 59.15 13.12C59.65 12.61 59.9 11.97 59.9 11.19C59.9 10.41 59.65 9.76 59.15 9.26C58.65 8.76 58.05 8.5 57.33 8.5C56.6 8.5 56 8.76 55.5 9.26C55 9.76 54.76 10.41 54.76 11.19C54.76 11.97 55 12.61 55.5 13.12ZM59.79 13.68C59.13 14.36 58.31 14.7 57.33 14.7C56.34 14.7 55.52 14.36 54.86 13.68C54.2 13 53.87 12.17 53.87 11.19C53.87 10.21 54.2 9.38 54.86 8.7C55.52 8.02 56.34 7.68 57.33 7.68C58.3 7.68 59.12 8.02 59.78 8.7C60.44 9.38 60.78 10.21 60.78 11.19C60.78 12.17 60.45 13 59.79 13.68Z" fill="#282739" fill-opacity="1.000000" fill-rule="nonzero"/>
	<path id="path13820" d="M55.5 13.12L55.42 13.19C55.94 13.72 56.58 13.98 57.33 13.98C58.07 13.98 58.72 13.72 59.23 13.19C59.75 12.67 60.01 11.99 60.01 11.19C60.01 10.38 59.75 9.7 59.23 9.18C58.72 8.66 58.07 8.39 57.33 8.39C56.58 8.39 55.94 8.66 55.42 9.18C54.91 9.7 54.64 10.38 54.65 11.19C54.64 11.99 54.91 12.67 55.42 13.19L55.5 13.12L55.58 13.04C55.11 12.55 54.87 11.95 54.87 11.19C54.87 10.43 55.11 9.82 55.58 9.34L55.58 9.34C56.06 8.86 56.64 8.62 57.33 8.62C58.02 8.62 58.59 8.86 59.07 9.34L59.07 9.34L59.07 9.34C59.55 9.82 59.78 10.43 59.79 11.19C59.78 11.95 59.55 12.55 59.07 13.04C58.59 13.52 58.02 13.76 57.33 13.76C56.64 13.76 56.06 13.52 55.58 13.04L55.5 13.12ZM59.79 13.68L59.71 13.6C59.07 14.26 58.28 14.58 57.33 14.58C56.37 14.58 55.58 14.26 54.94 13.6C54.31 12.94 53.99 12.14 53.99 11.19C53.99 10.23 54.31 9.44 54.94 8.78C55.58 8.12 56.37 7.79 57.33 7.79C58.28 7.79 59.06 8.12 59.71 8.78C60.35 9.44 60.67 10.24 60.67 11.19C60.67 12.14 60.35 12.94 59.71 13.6L59.79 13.68L59.87 13.76C60.55 13.06 60.89 12.19 60.89 11.19C60.89 10.19 60.55 9.32 59.87 8.62C59.18 7.92 58.33 7.57 57.33 7.57C56.32 7.57 55.46 7.92 54.78 8.62L54.78 8.62C54.1 9.32 53.76 10.18 53.76 11.19C53.76 12.19 54.1 13.06 54.78 13.76L54.78 13.76C55.46 14.46 56.32 14.81 57.33 14.81C58.33 14.81 59.19 14.46 59.87 13.76L59.79 13.68Z" fill="#282739" fill-opacity="1.000000" fill-rule="nonzero"/>
	<path id="path13822" d="M65.12 14.7C64.13 14.7 63.3 14.36 62.64 13.69C61.96 13.02 61.63 12.19 61.63 11.19C61.63 10.19 61.96 9.35 62.64 8.68C63.3 8.01 64.13 7.68 65.12 7.68C66.13 7.68 66.96 8.04 67.59 8.78L66.99 9.36C66.53 8.79 65.91 8.5 65.12 8.5C64.39 8.5 63.77 8.75 63.27 9.25C62.76 9.74 62.51 10.39 62.51 11.19C62.51 11.99 62.76 12.64 63.27 13.13C63.77 13.62 64.39 13.87 65.12 13.87C65.93 13.87 66.62 13.55 67.19 12.89L67.78 13.5C67.48 13.86 67.09 14.16 66.63 14.37C66.17 14.59 65.66 14.7 65.12 14.7Z" fill="#282739" fill-opacity="1.000000" fill-rule="nonzero"/>
	<path id="path13824" d="M65.12 14.7L65.12 14.58C64.16 14.58 63.37 14.26 62.72 13.61C62.07 12.96 61.75 12.16 61.75 11.19C61.75 10.21 62.07 9.41 62.72 8.76C63.37 8.11 64.16 7.79 65.12 7.79C66.11 7.79 66.89 8.14 67.51 8.85L67.59 8.78L67.51 8.7L66.91 9.28L66.99 9.36L67.08 9.29C66.6 8.69 65.94 8.39 65.12 8.39C64.37 8.39 63.71 8.65 63.19 9.17C62.67 9.68 62.4 10.36 62.41 11.19C62.4 12.01 62.67 12.69 63.19 13.21C63.71 13.72 64.37 13.98 65.12 13.98C65.96 13.98 66.69 13.64 67.27 12.97L67.19 12.9L67.11 12.97L67.71 13.57L67.79 13.5L67.7 13.42C67.41 13.78 67.03 14.06 66.58 14.27C66.14 14.48 65.65 14.58 65.12 14.58L65.12 14.7L65.12 14.81C65.68 14.81 66.2 14.7 66.68 14.47C67.16 14.25 67.56 13.95 67.87 13.57L67.94 13.49L67.27 12.82L67.18 12.73L67.1 12.82C66.55 13.45 65.9 13.76 65.12 13.76C64.42 13.76 63.83 13.52 63.35 13.05L63.35 13.05C62.87 12.58 62.63 11.97 62.63 11.19C62.63 10.41 62.87 9.8 63.35 9.33L63.35 9.33C63.83 8.85 64.42 8.62 65.12 8.62C65.89 8.62 66.46 8.89 66.9 9.43L66.98 9.52L67.67 8.86L67.75 8.78L67.67 8.7C67.03 7.95 66.16 7.57 65.12 7.57C64.11 7.57 63.25 7.91 62.56 8.6C61.87 9.29 61.52 10.16 61.52 11.19C61.52 12.21 61.87 13.08 62.56 13.77C63.25 14.46 64.11 14.81 65.12 14.81L65.12 14.7Z" fill="#282739" fill-opacity="1.000000" fill-rule="nonzero"/>
	<path id="path13826" d="M71.28 14.55L70.41 14.55L70.41 8.66L68.54 8.66L68.54 7.83L73.16 7.83L73.16 8.66L71.28 8.66L71.28 14.55Z" fill="#282739" fill-opacity="1.000000" fill-rule="nonzero"/>
	<path id="path13828" d="M71.28 14.55L71.28 14.43L70.53 14.43L70.53 8.54L68.65 8.54L68.65 7.94L73.04 7.94L73.04 8.54L71.16 8.54L71.16 14.55L71.28 14.55L71.28 14.43L71.28 14.55L71.39 14.55L71.39 8.77L73.26 8.77L73.26 7.83L73.26 7.72L68.42 7.72L68.42 8.65L68.42 8.77L70.3 8.77L70.3 14.66L71.28 14.66L71.39 14.66L71.39 14.55L71.28 14.55Z" fill="#282739" fill-opacity="1.000000" fill-rule="nonzero"/>
	<path id="path13830" d="M75.03 11.92L77.26 11.92L76.16 8.89L76.12 8.89L75.03 11.92ZM73.12 14.55L75.66 7.83L76.63 7.83L79.16 14.55L78.21 14.55L77.56 12.73L74.74 12.73L74.08 14.55L73.12 14.55Z" fill="#282739" fill-opacity="1.000000" fill-rule="nonzero"/>
	<path id="path13832" d="M75.03 11.92L75.03 12.03L77.42 12.03L76.24 8.78L76.12 8.78L76.05 8.78L74.87 12.03L75.03 12.03L75.03 11.92L75.13 11.96L76.23 8.93L76.12 8.89L76.12 9L76.16 9L76.16 8.89L76.05 8.93L77.1 11.81L75.03 11.81L75.03 11.92L75.13 11.96L75.03 11.92ZM73.12 14.55L73.23 14.58L75.73 7.94L76.55 7.94L79 14.43L78.28 14.43L77.64 12.61L74.66 12.61L74 14.43L73.12 14.43L73.12 14.55L73.23 14.58L73.12 14.55L73.12 14.66L74.08 14.66L74.16 14.66L74.82 12.84L77.48 12.84L78.13 14.66L79.16 14.66L79.32 14.66L76.71 7.72L75.66 7.72L75.58 7.72L72.96 14.66L73.12 14.66L73.12 14.55Z" fill="#282739" fill-opacity="1.000000" fill-rule="nonzero"/>
	<path id="path13834" d="M80.14 14.55L80.14 7.83L85 7.83L85 14.55L84.14 14.55L84.14 8.66L81 8.66L81 14.55L80.14 14.55Z" fill="#282739" fill-opacity="1.000000" fill-rule="nonzero"/>
	<path id="path13836" d="M80.14 14.55L80.25 14.55L80.25 7.94L84.89 7.94L84.89 14.43L84.25 14.43L84.25 8.54L80.89 8.54L80.89 14.43L80.14 14.43L80.14 14.55L80.25 14.55L80.14 14.55L80.14 14.66L81 14.66L81.11 14.66L81.11 8.77L84.02 8.77L84.02 14.66L85 14.66L85.11 14.66L85.11 7.72L80.03 7.72L80.03 14.66L80.14 14.66L80.14 14.55Z" fill="#282739" fill-opacity="1.000000" fill-rule="nonzero"/>
	<path id="path13838" d="M86.54 14.55L86.54 7.83L87.4 7.83L87.4 10.71L90.76 10.71L90.76 7.83L91.62 7.83L91.62 14.55L90.76 14.55L90.76 11.52L87.4 11.52L87.4 14.55L86.54 14.55Z" fill="#282739" fill-opacity="1.000000" fill-rule="nonzero"/>
	<path id="path13840" d="M86.54 14.55L86.65 14.55L86.65 7.94L87.29 7.94L87.29 10.82L90.87 10.82L90.87 7.94L91.51 7.94L91.51 14.43L90.87 14.43L90.87 11.4L87.29 11.4L87.29 14.43L86.54 14.43L86.54 14.55L86.65 14.55L86.54 14.55L86.54 14.66L87.4 14.66L87.51 14.66L87.51 11.63L90.64 11.63L90.64 14.66L91.62 14.66L91.73 14.66L91.73 7.72L90.76 7.72L90.64 7.72L90.64 10.6L87.51 10.6L87.51 7.72L86.54 7.72L86.42 7.72L86.42 14.66L86.54 14.66L86.54 14.55Z" fill="#282739" fill-opacity="1.000000" fill-rule="nonzero"/>
	<path id="path13842" d="M94.36 13.12C94.86 13.62 95.47 13.87 96.19 13.87C96.91 13.87 97.51 13.62 98.01 13.12C98.51 12.61 98.76 11.97 98.76 11.19C98.76 10.41 98.51 9.76 98.01 9.26C97.51 8.76 96.91 8.5 96.19 8.5C95.47 8.5 94.86 8.76 94.36 9.26C93.87 9.76 93.62 10.41 93.62 11.19C93.62 11.97 93.87 12.61 94.36 13.12ZM98.65 13.68C97.99 14.36 97.17 14.7 96.19 14.7C95.21 14.7 94.39 14.36 93.73 13.68C93.07 13 92.74 12.17 92.74 11.19C92.74 10.21 93.07 9.38 93.73 8.7C94.39 8.02 95.21 7.68 96.19 7.68C97.16 7.68 97.98 8.02 98.65 8.7C99.31 9.38 99.64 10.21 99.64 11.19C99.64 12.17 99.31 13 98.65 13.68Z" fill="#282739" fill-opacity="1.000000" fill-rule="nonzero"/>
	<path id="path13844" d="M94.37 13.12L94.29 13.19C94.8 13.72 95.44 13.98 96.19 13.98C96.94 13.98 97.58 13.72 98.1 13.19C98.61 12.67 98.87 11.99 98.87 11.19C98.87 10.38 98.61 9.7 98.1 9.18C97.58 8.66 96.94 8.39 96.19 8.39C95.44 8.39 94.8 8.66 94.29 9.18C93.77 9.7 93.51 10.38 93.51 11.19C93.51 11.99 93.77 12.67 94.29 13.19L94.37 13.12L94.44 13.04C93.97 12.55 93.73 11.95 93.73 11.19C93.73 10.43 93.97 9.82 94.44 9.34C94.92 8.86 95.5 8.62 96.19 8.62C96.89 8.62 97.46 8.86 97.94 9.34L97.94 9.34L97.94 9.34C98.41 9.82 98.65 10.43 98.65 11.19C98.65 11.95 98.41 12.55 97.94 13.04C97.46 13.52 96.89 13.76 96.19 13.76C95.5 13.76 94.92 13.52 94.44 13.04L94.37 13.12ZM98.66 13.68L98.57 13.6C97.93 14.26 97.15 14.58 96.19 14.58C95.23 14.58 94.45 14.26 93.81 13.6L93.81 13.6L93.81 13.6C93.17 12.94 92.85 12.14 92.85 11.19C92.85 10.23 93.17 9.44 93.81 8.78C94.45 8.12 95.23 7.79 96.19 7.79C97.14 7.79 97.92 8.12 98.57 8.78C99.21 9.44 99.53 10.24 99.53 11.19C99.53 12.14 99.21 12.94 98.57 13.6L98.66 13.68L98.73 13.76C99.41 13.06 99.76 12.19 99.76 11.19C99.76 10.19 99.41 9.32 98.73 8.62C98.05 7.92 97.19 7.57 96.19 7.57C95.18 7.57 94.33 7.92 93.65 8.62L93.65 8.62C92.97 9.32 92.63 10.18 92.63 11.19C92.63 12.19 92.97 13.06 93.65 13.76L93.65 13.76C94.33 14.46 95.18 14.81 96.19 14.81C97.2 14.81 98.05 14.46 98.73 13.76L98.66 13.68Z" fill="#282739" fill-opacity="1.000000" fill-rule="nonzero"/>
	<path id="path13846" d="M103.17 14.55L103.17 7.83L104.03 7.83L104.03 10.71L107.39 10.71L107.39 7.83L108.26 7.83L108.26 14.55L107.39 14.55L107.39 11.52L104.03 11.52L104.03 14.55L103.17 14.55Z" fill="#282739" fill-opacity="1.000000" fill-rule="nonzero"/>
	<path id="path13848" d="M103.17 14.55L103.28 14.55L103.28 7.94L103.92 7.94L103.92 10.82L107.5 10.82L107.5 7.94L108.14 7.94L108.14 14.43L107.5 14.43L107.5 11.4L103.92 11.4L103.92 14.43L103.17 14.43L103.17 14.55L103.28 14.55L103.17 14.55L103.17 14.66L104.03 14.66L104.14 14.66L104.14 11.63L107.28 11.63L107.28 14.66L108.25 14.66L108.37 14.66L108.37 7.72L107.39 7.72L107.28 7.72L107.28 10.6L104.14 10.6L104.14 7.72L103.17 7.72L103.06 7.72L103.06 14.66L103.17 14.66L103.17 14.55Z" fill="#282739" fill-opacity="1.000000" fill-rule="nonzero"/>
	<path id="path13850" d="M111.13 11.92L113.37 11.92L112.27 8.89L112.23 8.89L111.13 11.92ZM109.23 14.55L111.77 7.83L112.74 7.83L115.27 14.55L114.32 14.55L113.67 12.73L110.84 12.73L110.19 14.55L109.23 14.55Z" fill="#282739" fill-opacity="1.000000" fill-rule="nonzero"/>
	<path id="path13852" d="M111.14 11.92L111.14 12.03L113.53 12.03L112.35 8.78L112.23 8.78L112.16 8.78L110.98 12.03L111.14 12.03L111.14 11.92L111.24 11.96L112.34 8.93L112.23 8.89L112.23 9L112.27 9L112.27 8.89L112.17 8.93L113.21 11.81L111.14 11.81L111.14 11.92L111.24 11.96L111.14 11.92ZM109.23 14.55L109.34 14.58L111.84 7.94L112.66 7.94L115.11 14.43L114.39 14.43L113.75 12.61L110.77 12.61L110.11 14.43L109.23 14.43L109.23 14.55L109.34 14.58L109.23 14.55L109.23 14.66L110.19 14.66L110.27 14.66L110.93 12.84L113.59 12.84L114.24 14.66L115.27 14.66L115.43 14.66L112.82 7.72L111.77 7.72L111.69 7.72L109.07 14.66L109.23 14.66L109.23 14.55Z" fill="#282739" fill-opacity="1.000000" fill-rule="nonzero"/>
</svg>
