<svg width="114.000000" height="40.000000" viewBox="0 0 114 40" fill="none" xmlns="http://www.w3.org/2000/svg" xmlns:xlink="http://www.w3.org/1999/xlink">
	<desc>
			Created with Pixso.
	</desc>
	<defs/>
	<rect id="Rectangle 156" rx="5.000000" width="114.000000" height="40.000000" fill="#6F73EE" fill-opacity="1.000000"/>
	<rect id="Rectangle 156" x="0.750000" y="0.750000" rx="5.000000" width="112.500000" height="38.500000" stroke="#6F73EE" stroke-opacity="1.000000" stroke-width="1.500000"/>
	<path id="Каталог" d="M42.24 25.06L42.24 13.86L44.18 13.86L44.18 18.52L48.34 13.86L50.63 13.86L45.89 19.1L50.87 25.06L48.53 25.06L44.18 19.82L44.18 25.06L42.24 25.06ZM53.22 19.36C53.01 19.47 52.84 19.56 52.73 19.63L52.02 18.4C52.35 18.2 52.77 18 53.29 17.81C53.8 17.62 54.38 17.52 55.05 17.52C55.65 17.52 56.19 17.61 56.65 17.79C57.1 17.96 57.46 18.22 57.72 18.56C57.98 18.9 58.12 19.32 58.12 19.81L58.12 25.06L56.42 25.06L56.42 24.02C56.39 24.08 56.35 24.13 56.31 24.19C56.06 24.52 55.73 24.78 55.32 24.96C54.9 25.13 54.44 25.22 53.93 25.22C53.45 25.22 53.01 25.13 52.61 24.96C52.23 24.79 51.92 24.54 51.69 24.21C51.46 23.87 51.35 23.44 51.35 22.94Q51.35 22.33 51.61 21.85Q51.66 21.74 51.73 21.65C51.99 21.28 52.35 21.01 52.82 20.82C53.3 20.62 53.86 20.53 54.5 20.53Q55.14 20.53 55.64 20.69C55.95 20.78 56.21 20.89 56.42 21.02L56.42 20Q56.42 19.74 56.31 19.54Q56.2 19.35 55.99 19.21C55.71 19.02 55.37 18.93 54.97 18.93C54.61 18.93 54.29 18.97 53.99 19.06C53.7 19.14 53.45 19.24 53.22 19.36ZM56.42 22C56.26 21.92 56.1 21.86 55.94 21.81C55.6 21.69 55.21 21.63 54.76 21.63Q54.21 21.63 53.85 21.79C53.6 21.89 53.41 22.03 53.29 22.22C53.16 22.4 53.09 22.62 53.09 22.88C53.09 23.1 53.15 23.29 53.27 23.44C53.4 23.59 53.56 23.71 53.77 23.79C53.98 23.87 54.21 23.9 54.45 23.9Q55.01 23.9 55.46 23.73C55.76 23.61 55.99 23.42 56.17 23.17C56.34 22.91 56.42 22.56 56.42 22.13L56.42 22ZM66.17 19.36C65.96 19.47 65.8 19.56 65.68 19.63L64.97 18.4C65.31 18.2 65.73 18 66.24 17.81C66.75 17.62 67.34 17.52 68 17.52Q68.91 17.52 69.6 17.79C70.06 17.96 70.41 18.22 70.67 18.56C70.94 18.9 71.07 19.32 71.07 19.81L71.07 25.06L69.37 25.06L69.37 24.02C69.34 24.08 69.3 24.13 69.26 24.19C69.02 24.52 68.69 24.78 68.27 24.96C67.85 25.13 67.39 25.22 66.88 25.22C66.4 25.22 65.96 25.13 65.57 24.96C65.18 24.79 64.87 24.54 64.64 24.21C64.41 23.87 64.3 23.44 64.3 22.94Q64.3 22.33 64.56 21.85Q64.62 21.74 64.69 21.65C64.94 21.28 65.31 21.01 65.77 20.82C66.25 20.62 66.81 20.53 67.45 20.53C67.88 20.53 68.26 20.58 68.59 20.69C68.9 20.78 69.16 20.89 69.37 21.02L69.37 20C69.37 19.66 69.23 19.4 68.94 19.21C68.67 19.02 68.32 18.93 67.92 18.93C67.57 18.93 67.24 18.97 66.94 19.06C66.65 19.14 66.4 19.24 66.17 19.36ZM69.37 22C69.22 21.92 69.06 21.86 68.89 21.81C68.55 21.69 68.16 21.63 67.71 21.63C67.35 21.63 67.04 21.68 66.8 21.79Q66.49 21.91 66.3 22.14Q66.27 22.18 66.24 22.22C66.11 22.4 66.05 22.62 66.05 22.88C66.05 23.1 66.11 23.29 66.22 23.44C66.35 23.59 66.52 23.71 66.72 23.79C66.93 23.87 67.16 23.9 67.41 23.9Q67.97 23.9 68.41 23.73C68.71 23.61 68.95 23.42 69.12 23.17C69.29 22.91 69.37 22.56 69.37 22.13L69.37 22ZM82.39 23.38C82.05 22.79 81.88 22.12 81.88 21.38C81.88 20.62 82.05 19.95 82.39 19.37Q82.65 18.96 82.99 18.63Q83.36 18.28 83.82 18.03C84.43 17.7 85.1 17.54 85.85 17.54C86.61 17.54 87.29 17.7 87.88 18.03Q88.37 18.29 88.74 18.66Q89.06 18.98 89.29 19.37C89.64 19.95 89.82 20.62 89.82 21.38C89.82 22.12 89.64 22.79 89.29 23.38C88.95 23.95 88.48 24.4 87.88 24.74C87.29 25.06 86.61 25.22 85.85 25.22Q84.9 25.22 84.09 24.87Q83.95 24.81 83.82 24.74C83.22 24.4 82.75 23.95 82.39 23.38ZM59.12 19.21L59.12 17.7L63.78 17.7L63.78 19.21L62.31 19.21L62.31 25.06L60.61 25.06L60.61 19.21L59.12 19.21ZM73.32 17.7L80.06 17.7L80.06 25.06L78.36 25.06L78.36 19.29L75.02 19.29L75.02 22.5Q75.02 23.36 74.73 23.94C74.55 24.31 74.25 24.59 73.82 24.78C73.4 24.96 72.85 25.06 72.16 25.06L72.16 23.49C72.48 23.49 72.75 23.4 72.97 23.23C73.21 23.06 73.32 22.74 73.32 22.26L73.32 17.7ZM91.54 25.06L91.54 17.7L95.78 17.7L95.78 19.21L93.25 19.21L93.25 25.06L91.54 25.06ZM83.95 20.16C83.75 20.51 83.66 20.92 83.66 21.38Q83.66 22.06 83.95 22.59C84.14 22.93 84.4 23.2 84.73 23.41C85.06 23.6 85.43 23.7 85.85 23.7Q86.35 23.7 86.77 23.51Q86.87 23.46 86.97 23.41Q87.2 23.27 87.38 23.08Q87.6 22.87 87.75 22.59Q88.04 22.06 88.04 21.38C88.04 20.92 87.95 20.51 87.75 20.16Q87.56 19.81 87.28 19.56Q87.14 19.44 86.97 19.34C86.64 19.15 86.27 19.06 85.85 19.06C85.43 19.06 85.06 19.15 84.73 19.34C84.4 19.54 84.14 19.81 83.95 20.16Z" fill="#FFFFFF" fill-opacity="1.000000" fill-rule="evenodd"/>
	<line id="Line 2" x1="15.000000" y1="14.350098" x2="28.000000" y2="14.350098" stroke="#FFFFFF" stroke-opacity="1.000000" stroke-width="1.300000"/>
	<line id="Line 3" x1="15.000000" y1="19.350098" x2="28.000000" y2="19.350098" stroke="#FFFFFF" stroke-opacity="1.000000" stroke-width="1.300000"/>
	<line id="Line 4" x1="21.000000" y1="24.350098" x2="28.000000" y2="24.350098" stroke="#FFFFFF" stroke-opacity="1.000000" stroke-width="1.300000"/>
</svg>
