<svg width="123.000000" height="45.000000" viewBox="0 0 123 45" fill="none" xmlns="http://www.w3.org/2000/svg" xmlns:xlink="http://www.w3.org/1999/xlink">
	<desc>
			Created with Pixso.
	</desc>
	<defs>
		<clipPath id="clip6_11563">
			<rect id="013-instagram 1" rx="-0.500000" width="19.000000" height="19.000000" transform="translate(14.500000 13.500000)" fill="white" fill-opacity="0"/>
		</clipPath>
		<linearGradient x1="15.830809" y1="31.169308" x2="32.169189" y2="14.830692" id="paint_linear_6_11560_0" gradientUnits="userSpaceOnUse">
			<stop stop-color="#FFC107"/>
			<stop offset="0.507000" stop-color="#F44336"/>
			<stop offset="0.990000" stop-color="#9C27B0"/>
		</linearGradient>
		<linearGradient x1="20.464563" y1="26.535435" x2="27.535439" y2="19.464561" id="paint_linear_6_11561_0" gradientUnits="userSpaceOnUse">
			<stop stop-color="#FFC107"/>
			<stop offset="0.507000" stop-color="#F44336"/>
			<stop offset="0.990000" stop-color="#9C27B0"/>
		</linearGradient>
		<linearGradient x1="28.902220" y1="18.096420" x2="29.844345" y2="17.154173" id="paint_linear_6_11562_0" gradientUnits="userSpaceOnUse">
			<stop stop-color="#FFC107"/>
			<stop offset="0.507000" stop-color="#F44336"/>
			<stop offset="0.990000" stop-color="#9C27B0"/>
		</linearGradient>
	</defs>
	<rect id="Rectangle 183" rx="5.000000" width="123.000000" height="45.000000" fill="#FFFFFF" fill-opacity="1.000000"/>
	<rect id="013-instagram 1" rx="-0.500000" width="19.000000" height="19.000000" transform="translate(14.500000 13.500000)" fill="#FFFFFF" fill-opacity="0"/>
	<g clip-path="url(#clip6_11563)">
		<path id="Vector" d="M27.75 13L20.25 13C16.79 13 14 15.79 14 19.25L14 26.75C14 30.2 16.79 33 20.25 33L27.75 33C31.2 33 34 30.2 34 26.75L34 19.25C34 15.79 31.2 13 27.75 13ZM32.12 26.75C32.12 29.16 30.16 31.12 27.75 31.12L20.25 31.12C17.83 31.12 15.87 29.16 15.87 26.75L15.87 19.25C15.87 16.83 17.83 14.87 20.25 14.87L27.75 14.87C30.16 14.87 32.12 16.83 32.12 19.25L32.12 26.75Z" fill="url(#paint_linear_6_11560_0)" fill-opacity="1.000000" fill-rule="nonzero"/>
		<path id="Vector" d="M24 18C21.23 18 19 20.23 19 23C19 25.76 21.23 28 24 28C26.76 28 29 25.76 29 23C29 20.23 26.76 18 24 18ZM24 26.12C22.27 26.12 20.87 24.72 20.87 23C20.87 21.27 22.27 19.87 24 19.87C25.72 19.87 27.12 21.27 27.12 23C27.12 24.72 25.72 26.12 24 26.12Z" fill="url(#paint_linear_6_11561_0)" fill-opacity="1.000000" fill-rule="nonzero"/>
		<path id="Vector" d="M30.03 17.62C30.03 17.99 29.74 18.29 29.37 18.29C29 18.29 28.7 17.99 28.7 17.62C28.7 17.25 29 16.95 29.37 16.95C29.74 16.95 30.03 17.25 30.03 17.62Z" fill="url(#paint_linear_6_11562_0)" fill-opacity="1.000000" fill-rule="evenodd"/>
	</g>
	<path id="Instagram" d="M46.09 19.86L46.09 10.06L47.77 10.06L47.77 19.86L46.09 19.86ZM63.58 13.42L63.58 11.18L65.06 11.18L65.06 13.42L66.14 13.42L66.14 14.75L65.06 14.75L65.06 19.86L63.58 19.86L63.58 14.75L62.48 14.75L62.48 13.42L63.58 13.42ZM68.09 14.86C67.9 14.96 67.76 15.03 67.66 15.1L67.04 14.04C67.34 13.86 67.72 13.69 68.17 13.52C68.63 13.35 69.16 13.27 69.77 13.27C70.29 13.27 70.76 13.35 71.17 13.5C71.58 13.65 71.9 13.88 72.12 14.18C72.36 14.47 72.47 14.84 72.47 15.27L72.47 19.86L70.99 19.86L70.99 18.98C70.95 19.05 70.9 19.11 70.85 19.17C70.61 19.45 70.32 19.66 69.95 19.8Q69.63 19.92 69.3 19.97Q69.08 20 68.86 20Q68.38 20 67.96 19.85Q67.85 19.81 67.74 19.76C67.39 19.6 67.12 19.37 66.91 19.06C66.71 18.75 66.61 18.38 66.61 17.94Q66.61 17.35 66.86 16.92Q67.02 16.66 67.26 16.46C67.7 16.08 68.32 15.9 69.13 15.9C69.56 15.9 69.92 15.94 70.23 16.04C70.53 16.13 70.79 16.23 70.99 16.36L70.99 15.56C70.99 15.36 70.96 15.19 70.89 15.06C70.82 14.93 70.73 14.82 70.6 14.74C70.47 14.65 70.33 14.59 70.16 14.55C69.99 14.52 69.81 14.5 69.62 14.5C69.32 14.5 69.03 14.54 68.76 14.61C68.5 14.68 68.28 14.76 68.09 14.86ZM70.99 17.21C70.84 17.14 70.68 17.08 70.53 17.03C70.2 16.94 69.85 16.89 69.49 16.89C69.17 16.89 68.92 16.93 68.72 17.02C68.52 17.09 68.37 17.2 68.27 17.34C68.18 17.48 68.13 17.65 68.13 17.86Q68.13 18.14 68.25 18.36Q68.27 18.39 68.29 18.42C68.39 18.57 68.53 18.68 68.71 18.75C68.89 18.83 69.1 18.87 69.34 18.87Q69.8 18.87 70.16 18.68C70.41 18.55 70.61 18.37 70.76 18.14C70.91 17.9 70.99 17.62 70.99 17.3L70.99 17.21ZM86.6 13.76L85.85 15.03C85.72 14.92 85.59 14.83 85.46 14.78C85.34 14.72 85.19 14.69 85 14.69Q84.65 14.69 84.43 14.86Q84.4 14.87 84.38 14.89C84.22 15.02 84.11 15.2 84.03 15.44C83.97 15.66 83.94 15.93 83.94 16.23L83.94 19.86L82.44 19.86L82.44 13.42L83.94 13.42L83.94 14.19C84.09 13.97 84.26 13.78 84.45 13.63C84.76 13.39 85.08 13.27 85.41 13.27C85.64 13.27 85.86 13.3 86.06 13.38C86.27 13.45 86.45 13.58 86.6 13.76ZM88.54 14.86C88.36 14.96 88.21 15.03 88.11 15.1L87.49 14.04C87.79 13.86 88.17 13.69 88.63 13.52C89.08 13.35 89.62 13.27 90.22 13.27Q91.01 13.27 91.62 13.5C92.03 13.65 92.35 13.88 92.57 14.18C92.81 14.47 92.92 14.84 92.92 15.27L92.92 19.86L91.44 19.86L91.44 18.98C91.4 19.05 91.35 19.11 91.3 19.17C91.07 19.45 90.77 19.66 90.4 19.8C90.05 19.93 89.69 20 89.31 20Q88.84 20 88.41 19.85Q88.3 19.81 88.19 19.76C87.85 19.6 87.57 19.37 87.37 19.06C87.16 18.75 87.06 18.38 87.06 17.94Q87.06 17.35 87.32 16.92Q87.47 16.66 87.72 16.46Q88.37 15.9 89.58 15.9Q90.22 15.9 90.68 16.04C90.99 16.13 91.24 16.23 91.44 16.36L91.44 15.56C91.44 15.36 91.41 15.19 91.34 15.06C91.28 14.93 91.18 14.82 91.05 14.74C90.93 14.65 90.78 14.59 90.61 14.55C90.45 14.52 90.26 14.5 90.07 14.5C89.77 14.5 89.49 14.54 89.21 14.61C88.95 14.68 88.73 14.76 88.54 14.86ZM91.44 17.21C91.29 17.14 91.14 17.08 90.98 17.03C90.65 16.94 90.31 16.89 89.94 16.89C89.63 16.89 89.37 16.93 89.17 17.02C88.98 17.09 88.83 17.2 88.72 17.34C88.63 17.48 88.58 17.65 88.58 17.86C88.58 18.07 88.64 18.26 88.74 18.42C88.84 18.57 88.98 18.68 89.16 18.75C89.35 18.83 89.56 18.87 89.79 18.87C90.1 18.87 90.37 18.81 90.61 18.68C90.87 18.55 91.07 18.37 91.22 18.14C91.37 17.9 91.44 17.62 91.44 17.3L91.44 17.21ZM53.96 19.86L53.96 15.94C53.96 15.46 53.86 15.1 53.67 14.86C53.47 14.62 53.17 14.5 52.77 14.5Q52.34 14.5 52.01 14.68C51.8 14.79 51.63 14.96 51.51 15.18C51.4 15.4 51.34 15.65 51.34 15.94L51.34 19.86L49.82 19.86L49.82 13.42L51.34 13.42L51.34 14.41Q51.65 13.84 52.13 13.56C52.45 13.37 52.84 13.28 53.27 13.28Q54.13 13.28 54.67 13.69Q54.82 13.81 54.94 13.95Q54.95 13.96 54.95 13.97Q55.51 14.62 55.51 15.76L55.51 19.86L53.96 19.86ZM56.86 18.63L57.74 17.73Q58.06 18.08 58.37 18.32Q58.68 18.56 59 18.68C59.21 18.77 59.43 18.81 59.64 18.81C59.91 18.81 60.12 18.75 60.27 18.63C60.43 18.51 60.51 18.34 60.51 18.12Q60.51 17.96 60.45 17.83Q60.4 17.73 60.33 17.65C60.21 17.51 60.04 17.39 59.83 17.3C59.61 17.2 59.36 17.09 59.07 16.99Q58.64 16.82 58.2 16.6C57.92 16.44 57.69 16.23 57.5 15.98C57.32 15.73 57.24 15.41 57.24 15.03Q57.24 14.49 57.49 14.11Q57.51 14.08 57.53 14.05C57.73 13.79 58.01 13.6 58.34 13.48C58.69 13.35 59.06 13.28 59.45 13.28Q59.98 13.28 60.44 13.43C60.76 13.54 61.04 13.67 61.3 13.84C61.55 14.01 61.76 14.2 61.94 14.41L61.1 15.31C60.89 15.06 60.64 14.85 60.34 14.69C60.04 14.54 59.74 14.46 59.42 14.46C59.2 14.46 59.01 14.5 58.87 14.6C58.73 14.69 58.66 14.82 58.66 15C58.66 15.15 58.72 15.29 58.85 15.41C58.98 15.52 59.14 15.62 59.35 15.72C59.56 15.81 59.8 15.91 60.06 16.01C60.43 16.15 60.76 16.3 61.06 16.47C61.36 16.64 61.59 16.85 61.77 17.09C61.95 17.33 62.04 17.65 62.04 18.04C62.04 18.65 61.83 19.14 61.41 19.51Q61.37 19.54 61.33 19.58Q60.73 20.06 59.74 20.06Q59.07 20.06 58.52 19.86C58.16 19.72 57.84 19.54 57.56 19.33C57.28 19.1 57.04 18.87 56.86 18.63ZM74.18 18.4Q73.74 17.66 73.74 16.6Q73.74 15.53 74.18 14.81C74.47 14.31 74.85 13.93 75.33 13.67C75.81 13.41 76.33 13.28 76.88 13.28C77.42 13.28 77.89 13.42 78.29 13.69C78.61 13.89 78.87 14.15 79.08 14.49L79.08 13.42L80.56 13.42L80.56 19.72C80.56 20.49 80.4 21.13 80.09 21.64C79.78 22.14 79.37 22.52 78.87 22.76C78.36 23.01 77.82 23.14 77.23 23.14Q76.19 23.14 75.45 22.77C74.96 22.54 74.58 22.21 74.3 21.78Q74.24 21.68 74.19 21.58Q73.89 21.01 73.87 20.29L75.38 20.29C75.39 20.58 75.47 20.84 75.62 21.06C75.77 21.3 75.98 21.48 76.25 21.61C76.52 21.75 76.84 21.82 77.2 21.82C77.51 21.82 77.81 21.75 78.1 21.6C78.39 21.45 78.62 21.22 78.8 20.91C78.99 20.6 79.08 20.21 79.08 19.72L79.08 18.72C78.87 19.06 78.61 19.33 78.29 19.54C77.89 19.8 77.42 19.93 76.88 19.93Q76.47 19.93 76.09 19.83Q75.69 19.74 75.33 19.54C74.85 19.28 74.47 18.9 74.18 18.4ZM79.08 16.6C79.08 16.27 79.02 15.99 78.91 15.74Q78.76 15.37 78.49 15.11C78.31 14.94 78.12 14.81 77.9 14.72C77.69 14.64 77.47 14.6 77.24 14.6Q76.94 14.6 76.66 14.68Q76.46 14.74 76.28 14.83C75.99 14.98 75.76 15.21 75.58 15.51C75.4 15.8 75.31 16.17 75.31 16.6C75.31 17.03 75.4 17.4 75.58 17.7C75.76 18 75.99 18.23 76.28 18.39C76.58 18.54 76.9 18.61 77.24 18.61Q77.35 18.61 77.46 18.6Q77.8 18.56 78.11 18.39C78.39 18.23 78.62 18 78.8 17.7C78.99 17.41 79.08 17.04 79.08 16.6ZM103.68 14.41C103.83 14.79 103.91 15.24 103.91 15.76L103.91 19.86L102.39 19.86L102.39 15.94C102.39 15.45 102.3 15.1 102.12 14.86C101.95 14.62 101.69 14.5 101.32 14.5C101.06 14.5 100.83 14.55 100.64 14.67C100.45 14.78 100.3 14.94 100.19 15.16Q100.04 15.48 100.04 15.94L100.04 19.86L98.52 19.86L98.52 15.94C98.52 15.45 98.43 15.1 98.26 14.86C98.09 14.62 97.82 14.5 97.45 14.5Q97.11 14.5 96.83 14.63Q96.8 14.65 96.77 14.67C96.59 14.78 96.44 14.94 96.33 15.16C96.22 15.37 96.17 15.63 96.17 15.94L96.17 19.86L94.69 19.86L94.69 13.42L96.17 13.42L96.17 14.36C96.37 14 96.61 13.74 96.91 13.56C97.21 13.37 97.57 13.28 97.99 13.28Q98.69 13.28 99.15 13.57C99.47 13.77 99.7 14.05 99.84 14.43C100.07 14.05 100.36 13.76 100.69 13.57C101.04 13.38 101.43 13.28 101.86 13.28C102.32 13.28 102.71 13.38 103 13.57C103.3 13.76 103.53 14.04 103.68 14.41Z" fill="#282739" fill-opacity="1.000000" fill-rule="evenodd"/>
	<path id="10 602" d="M75.39 35L70.46 35L73.77 31.46Q74 31.22 74.16 30.97Q74.32 30.73 74.41 30.47Q74.42 30.44 74.43 30.4Q74.5 30.18 74.5 29.93Q74.5 29.87 74.49 29.81Q74.47 29.64 74.41 29.48Q74.39 29.45 74.38 29.42Q74.29 29.24 74.14 29.09Q73.97 28.91 73.71 28.8Q73.47 28.68 73.15 28.68Q72.7 28.68 72.38 28.88Q72.37 28.89 72.37 28.89Q72.29 28.94 72.23 28.99Q72.01 29.18 71.87 29.48Q71.71 29.87 71.71 30.4L70.86 30.4Q70.86 29.65 71.12 29.08Q71.29 28.73 71.55 28.48Q71.72 28.32 71.91 28.2Q72.43 27.89 73.15 27.89Q73.72 27.89 74.14 28.08Q74.56 28.27 74.84 28.58Q75.11 28.88 75.24 29.24Q75.36 29.58 75.36 29.9Q75.36 29.95 75.36 29.99Q75.34 30.49 75.1 30.97Q74.97 31.25 74.8 31.49Q74.63 31.72 74.43 31.93L72.21 34.19L75.39 34.19L75.39 35ZM47.35 28.92L45.8 29.37L45.8 28.5L48.2 27.9L48.2 35L47.35 35L47.35 28.92ZM50.23 33.35Q49.9 32.54 49.9 31.49Q49.9 30.44 50.23 29.64Q50.55 28.83 51.14 28.36Q51.39 28.16 51.68 28.05Q52.06 27.9 52.5 27.9Q52.93 27.9 53.31 28.05Q53.6 28.16 53.85 28.36Q54.43 28.83 54.76 29.64Q55.1 30.44 55.1 31.49Q55.1 32.54 54.76 33.35Q54.43 34.16 53.85 34.63Q53.6 34.83 53.31 34.94Q52.94 35.1 52.5 35.1Q52.05 35.1 51.67 34.94Q51.39 34.83 51.14 34.63Q50.55 34.16 50.23 33.35ZM64.99 33.35Q64.66 32.54 64.66 31.49Q64.66 30.44 64.99 29.64Q65.31 28.83 65.9 28.36Q66.15 28.16 66.44 28.05Q66.82 27.9 67.26 27.9Q67.69 27.9 68.07 28.05Q68.36 28.16 68.61 28.36Q69.19 28.83 69.52 29.64Q69.86 30.44 69.86 31.49Q69.86 32.54 69.52 33.35Q69.19 34.16 68.61 34.63Q68.36 34.83 68.07 34.94Q67.7 35.1 67.26 35.1Q66.81 35.1 66.43 34.94Q66.15 34.83 65.9 34.63Q65.31 34.16 64.99 33.35ZM59.43 31.25L61.8 28L62.87 28L60.91 30.58Q60.97 30.55 61.03 30.52Q61.05 30.51 61.08 30.51Q61.34 30.42 61.69 30.42Q62.01 30.42 62.3 30.52Q62.39 30.55 62.49 30.6Q62.63 30.66 62.76 30.75Q62.97 30.88 63.15 31.07Q63.19 31.12 63.22 31.16Q63.46 31.44 63.59 31.8Q63.75 32.21 63.75 32.7Q63.75 33.41 63.45 33.94Q63.44 33.95 63.44 33.96Q63.26 34.26 63.01 34.49Q62.82 34.66 62.59 34.79Q62.53 34.83 62.46 34.86Q61.97 35.1 61.38 35.1Q60.82 35.1 60.36 34.89Q60.26 34.85 60.16 34.79Q59.92 34.66 59.72 34.47Q59.48 34.25 59.31 33.96Q59.31 33.95 59.3 33.94Q59 33.41 59 32.7Q59 32.27 59.12 31.9Q59.23 31.53 59.43 31.25ZM50.86 30.37Q50.75 30.89 50.75 31.49Q50.75 32.1 50.86 32.62Q50.98 33.13 51.21 33.51Q51.45 33.88 51.77 34.09Q51.89 34.16 52.02 34.21Q52.24 34.29 52.5 34.29Q52.8 34.29 53.05 34.18Q53.14 34.14 53.23 34.09Q53.55 33.88 53.77 33.51Q54 33.13 54.12 32.62Q54.25 32.1 54.25 31.49Q54.25 30.89 54.12 30.37Q54 29.86 53.77 29.48Q53.55 29.1 53.23 28.9Q53.14 28.85 53.05 28.81Q52.8 28.7 52.5 28.7Q52.24 28.7 52.02 28.78Q51.89 28.83 51.77 28.9Q51.45 29.1 51.21 29.48Q50.98 29.86 50.86 30.37ZM65.62 30.37Q65.51 30.89 65.51 31.49Q65.51 32.1 65.62 32.62Q65.74 33.13 65.97 33.51Q66.21 33.88 66.53 34.09Q66.65 34.16 66.78 34.21Q67 34.29 67.26 34.29Q67.56 34.29 67.81 34.18Q67.9 34.14 67.99 34.09Q68.31 33.88 68.53 33.51Q68.76 33.13 68.88 32.62Q69.01 32.1 69.01 31.49Q69.01 30.89 68.88 30.37Q68.76 29.86 68.53 29.48Q68.31 29.1 67.99 28.9Q67.9 28.85 67.81 28.81Q67.56 28.7 67.26 28.7Q67 28.7 66.78 28.78Q66.65 28.83 66.53 28.9Q66.21 29.1 65.97 29.48Q65.74 29.86 65.62 30.37ZM60 31.87Q59.81 32.23 59.81 32.7Q59.81 33.18 60.01 33.54L60.01 33.54Q60.12 33.74 60.28 33.9Q60.41 34.02 60.57 34.12Q60.63 34.15 60.7 34.18Q61 34.33 61.38 34.33Q61.74 34.33 62.04 34.19Q62.11 34.16 62.18 34.12Q62.34 34.02 62.48 33.89Q62.63 33.74 62.74 33.54L62.74 33.54Q62.95 33.18 62.95 32.7Q62.95 32.23 62.76 31.87Q62.75 31.85 62.74 31.84Q62.61 31.61 62.43 31.44Q62.31 31.33 62.18 31.25Q62.11 31.21 62.04 31.18Q61.74 31.04 61.38 31.04Q61 31.04 60.7 31.19Q60.63 31.22 60.57 31.25Q60.44 31.33 60.34 31.43Q60.14 31.6 60.01 31.84Q60 31.85 60 31.87Z" fill="#5D6C7B" fill-opacity="1.000000" fill-rule="evenodd"/>
</svg>
