<svg width="112.476562" height="22.350098" viewBox="0 0 112.477 22.3501" fill="none" xmlns="http://www.w3.org/2000/svg" xmlns:xlink="http://www.w3.org/1999/xlink">
	<desc>
			Created with Pixso.
	</desc>
	<defs/>
	<path id="Kugoo" d="M58 13.89L52.42 13.89L52.42 9.99L63.04 9.99C63.14 11.67 62.97 13.24 62.53 14.7C62.09 16.16 61.41 17.45 60.49 18.57C59.57 19.69 58.42 20.57 57.04 21.21C55.66 21.83 54.08 22.14 52.3 22.14C50.62 22.14 49.08 21.88 47.68 21.36C46.28 20.82 45.07 20.06 44.05 19.08C43.03 18.08 42.23 16.9 41.65 15.54C41.09 14.16 40.81 12.64 40.81 10.98C40.81 9.32 41.1 7.82 41.68 6.48Q42.27 5.09 43.2 3.98Q43.63 3.46 44.14 3C45.2 2.04 46.44 1.3 47.86 0.78C49.28 0.26 50.82 0 52.48 0C53.96 0 55.29 0.21 56.47 0.63Q58.18 1.23 59.5 2.32Q59.54 2.36 59.59 2.4C60.51 3.14 61.3 4 61.96 4.98L57.46 7.32C56.98 6.48 56.33 5.79 55.51 5.25C54.71 4.69 53.7 4.41 52.48 4.41C51.3 4.41 50.23 4.67 49.27 5.19Q48.76 5.46 48.32 5.82Q47.52 6.48 46.96 7.44Q46.12 8.88 46.12 10.98C46.12 12.36 46.39 13.56 46.93 14.58Q47.49 15.58 48.31 16.29Q48.72 16.64 49.18 16.92C50.14 17.46 51.24 17.73 52.48 17.73C53.24 17.73 53.92 17.64 54.52 17.46C55.14 17.26 55.67 16.99 56.11 16.65C56.57 16.29 56.95 15.88 57.25 15.42C57.57 14.94 57.82 14.43 58 13.89ZM66.05 15.45C65.51 14.09 65.24 12.6 65.24 10.98C65.24 9.36 65.52 7.88 66.08 6.54C66.66 5.2 67.46 4.04 68.48 3.06C69.5 2.08 70.7 1.33 72.08 0.81C73.46 0.27 74.95 0 76.55 0C78.17 0 79.66 0.27 81.02 0.81C82.4 1.33 83.6 2.08 84.62 3.06Q85.14 3.56 85.59 4.12Q86.44 5.21 86.99 6.54Q87.83 8.55 87.83 10.98Q87.83 13.41 86.99 15.45C86.45 16.81 85.67 17.99 84.65 18.99C83.65 19.99 82.46 20.77 81.08 21.33C79.7 21.87 78.19 22.14 76.55 22.14C74.89 22.14 73.37 21.87 71.99 21.33C70.61 20.77 69.41 19.99 68.39 18.99Q68.02 18.61 67.69 18.21Q66.68 16.98 66.05 15.45ZM90.69 15.45C90.15 14.09 89.88 12.6 89.88 10.98C89.88 9.36 90.16 7.88 90.72 6.54C91.3 5.2 92.1 4.04 93.12 3.06C94.14 2.08 95.34 1.33 96.72 0.81C98.1 0.27 99.59 0 101.19 0C102.81 0 104.3 0.27 105.66 0.81C107.04 1.33 108.24 2.08 109.26 3.06Q109.78 3.56 110.22 4.12Q111.08 5.21 111.63 6.54Q112.47 8.55 112.47 10.98Q112.47 13.41 111.63 15.45C111.09 16.81 110.31 17.99 109.29 18.99C108.29 19.99 107.1 20.77 105.72 21.33C104.34 21.87 102.83 22.14 101.19 22.14C99.53 22.14 98.01 21.87 96.63 21.33C95.25 20.77 94.05 19.99 93.03 18.99Q92.66 18.61 92.33 18.21Q91.32 16.98 90.69 15.45ZM0 21.48L0 0.48L5.25 0.48L5.25 8.76L12.39 0.48L18.33 0.48L9.81 10.32L18.78 21.48L12.63 21.48L5.25 12.29L5.25 21.48L0 21.48ZM20.82 14.58L20.82 0.48L25.89 0.48L25.89 14.22Q25.89 15.64 26.57 16.58Q26.64 16.69 26.73 16.8Q26.87 16.96 27.03 17.09Q27.85 17.79 29.25 17.79C30.39 17.79 31.24 17.46 31.8 16.8C32.36 16.14 32.64 15.28 32.64 14.22L32.64 0.48L37.71 0.48L37.71 14.58C37.71 15.9 37.49 17.05 37.05 18.03C36.63 19.01 36.03 19.82 35.25 20.46C34.49 21.08 33.59 21.55 32.55 21.87C31.53 22.19 30.43 22.35 29.25 22.35C28.07 22.35 26.97 22.19 25.95 21.87C24.93 21.55 24.03 21.08 23.25 20.46C22.49 19.82 21.89 19.01 21.45 18.03C21.03 17.05 20.82 15.9 20.82 14.58ZM71.33 7.71C70.85 8.65 70.61 9.74 70.61 10.98C70.61 12.22 70.85 13.32 71.33 14.28C71.83 15.22 72.52 15.96 73.4 16.5C74.3 17.04 75.35 17.31 76.55 17.31Q78.19 17.31 79.45 16.61Q79.55 16.55 79.64 16.5C80.54 15.96 81.23 15.22 81.71 14.28C82.21 13.32 82.46 12.22 82.46 10.98C82.46 9.74 82.22 8.65 81.74 7.71C81.26 6.75 80.58 6 79.7 5.46C78.82 4.92 77.77 4.65 76.55 4.65C75.35 4.65 74.3 4.92 73.4 5.46C72.52 6 71.83 6.75 71.33 7.71ZM95.97 7.71C95.49 8.65 95.25 9.74 95.25 10.98C95.25 12.22 95.49 13.32 95.97 14.28C96.47 15.22 97.16 15.96 98.04 16.5C98.94 17.04 99.99 17.31 101.19 17.31Q102.83 17.31 104.09 16.61Q104.19 16.55 104.28 16.5C105.18 15.96 105.87 15.22 106.35 14.28C106.85 13.32 107.1 12.22 107.1 10.98C107.1 9.74 106.86 8.65 106.38 7.71C105.9 6.75 105.22 6 104.34 5.46C103.46 4.92 102.41 4.65 101.19 4.65C99.99 4.65 98.94 4.92 98.04 5.46C97.16 6 96.47 6.75 95.97 7.71Z" fill="#282739" fill-opacity="1.000000" fill-rule="evenodd"/>
</svg>
