<svg width="34.078125" height="23.367188" viewBox="0 0 34.0781 23.3672" fill="none" xmlns="http://www.w3.org/2000/svg" xmlns:xlink="http://www.w3.org/1999/xlink">
	<desc>
			Created with Pixso.
	</desc>
	<defs/>
	<rect id="Payment Method" rx="-0.500000" width="33.077274" height="22.367275" transform="translate(0.500000 0.500000)" fill="#FFFFFF" fill-opacity="0"/>
	<rect id="Payment Method" rx="-0.243409" width="33.590458" height="22.880457" transform="translate(0.243409 0.243409)" fill="#FFFFFF" fill-opacity="0"/>
	<rect id="BASE" rx="2.920909" width="34.077274" height="23.367275" fill="#FFFFFF" fill-opacity="1.000000"/>
	<rect id="BASE" x="0.242188" y="0.243652" rx="2.920909" width="33.590458" height="22.880457" stroke="#EAEBED" stroke-opacity="1.000000" stroke-width="0.486818"/>
	<path id="Qiwi" d="M9.74219 11.2617C9.74219 15.0317 12.8164 18.1064 16.625 18.1064C17.6133 18.1064 18.6016 17.9233 20.2461 17.8867C21.5625 17.8867 22.9922 18.3623 24.5664 19.7534C24.7109 19.8999 24.9336 19.7168 24.7852 19.5337C23.2109 17.5938 21.7852 17.228 20.3555 16.8984C18.6016 16.4961 17.6836 15.5444 17.0625 14.4463C16.9531 14.2266 16.8789 14.2632 16.8789 14.5562C16.8438 14.9951 16.8789 15.3979 16.9531 15.8003L16.7344 15.8003C14.2422 15.8003 12.1953 13.751 12.1953 11.2617C12.1953 8.77295 14.2422 6.72314 16.7344 6.72314C19.2227 6.72314 21.2734 8.77295 21.2734 11.2617C21.2734 11.4082 21.2734 11.5913 21.2344 11.7744C20.8672 11.7012 20.2461 11.7012 19.7695 11.7378C19.5898 11.7378 19.5898 11.811 19.7344 11.8477C21.1992 12.1401 22.2227 13.0552 22.4805 14.7388C22.4805 14.812 22.5156 14.812 22.5508 14.7754C23.1367 13.751 23.5039 12.543 23.5039 11.2617C23.5039 7.45557 20.4297 4.38086 16.625 4.38086C12.8164 4.38086 9.74219 7.49219 9.74219 11.2617ZM21.9688 14.7393C21.9688 14.5562 21.8555 14.1899 21.6016 14.0801C21.4922 14.0435 21.3828 14.0801 21.2734 14.1533C21.1992 14.2998 21.2734 14.5562 21.418 14.8125C21.5625 15.0684 21.7109 15.1782 21.8203 15.1782C21.9297 15.1782 22.0039 15.0317 21.9688 14.7393ZM20.1016 15.2148C20.2461 15.2148 20.4297 15.2881 20.6133 15.4346C20.9062 15.6909 21.0156 15.9834 20.8672 16.2031C20.7969 16.313 20.6133 16.3862 20.4648 16.3862C20.2852 16.3862 20.1016 16.313 19.9922 16.2031C19.6992 15.9468 19.625 15.5811 19.8086 15.3613C19.8438 15.2881 19.9531 15.2148 20.1016 15.2148Z" clip-rule="evenodd" fill="#F28A1A" fill-opacity="1.000000" fill-rule="evenodd"/>
</svg>
