<svg width="34.078125" height="23.367188" viewBox="0 0 34.0781 23.3672" fill="none" xmlns="http://www.w3.org/2000/svg" xmlns:xlink="http://www.w3.org/1999/xlink">
	<desc>
			Created with Pixso.
	</desc>
	<defs/>
	<rect id="Payment Method" rx="-0.500000" width="33.077274" height="22.367275" transform="translate(0.500000 0.500000)" fill="#FFFFFF" fill-opacity="0"/>
	<rect id="Payment Method" rx="-0.243409" width="33.590458" height="22.880457" transform="translate(0.243409 0.243409)" fill="#FFFFFF" fill-opacity="0"/>
	<rect id="BASE" rx="2.920909" width="34.077274" height="23.367275" fill="#FFFFFF" fill-opacity="1.000000"/>
	<rect id="BASE" x="0.242188" y="0.243652" rx="2.920909" width="33.590458" height="22.880457" stroke="#EAEBED" stroke-opacity="1.000000" stroke-width="0.486818"/>
	<path id="Union" d="" fill="#282739" fill-opacity="1.000000" fill-rule="nonzero"/>
	<path id="Blue" d="M12.92 11.76C12.92 11.48 12.9 11.19 12.85 10.91L8.98 10.91L8.98 12.52L11.19 12.52C11.1 13.03 10.81 13.5 10.37 13.79L10.37 14.83L11.7 14.83C12.48 14.1 12.92 13.03 12.92 11.76Z" fill="#4285F4" fill-opacity="1.000000" fill-rule="nonzero"/>
	<path id="Green" d="M8.97 15.84C10.08 15.84 11.01 15.46 11.69 14.83L10.37 13.79C10 14.04 9.53 14.19 8.97 14.19C7.9 14.19 6.99 13.45 6.67 12.47L5.3 12.47L5.3 13.54C6 14.95 7.42 15.84 8.97 15.84Z" fill="#34A853" fill-opacity="1.000000" fill-rule="nonzero"/>
	<path id="Yellow" d="M6.67 12.47C6.5 11.95 6.5 11.39 6.67 10.87L6.67 9.8L5.3 9.8C4.71 10.97 4.71 12.36 5.3 13.54L6.67 12.47Z" fill="#FBBC04" fill-opacity="1.000000" fill-rule="nonzero"/>
	<path id="Red" d="M8.97 9.15C9.56 9.14 10.13 9.36 10.55 9.77L11.73 8.58C10.98 7.87 10 7.49 8.97 7.5C7.42 7.5 6 8.39 5.3 9.8L6.67 10.87C6.99 9.88 7.9 9.15 8.97 9.15Z" fill="#EA4335" fill-opacity="1.000000" fill-rule="nonzero"/>
</svg>
