<svg width="20.000000" height="20.000000" viewBox="0 0 20 20" fill="none" xmlns="http://www.w3.org/2000/svg" xmlns:xlink="http://www.w3.org/1999/xlink">
	<desc>
			Created with Pixso.
	</desc>
	<defs/>
	<rect id="Rectangle 52" rx="10.000000" width="20.000000" height="20.000000" fill="#6F73EE" fill-opacity="1.000000"/>
	<path id="%" d="M6.14 9.69Q6.02 9.38 6.02 9.03Q6.02 8.65 6.16 8.33Q6.19 8.25 6.23 8.18Q6.33 8 6.47 7.86Q6.63 7.68 6.84 7.56C7.1 7.41 7.39 7.33 7.72 7.33Q8.21 7.33 8.57 7.54Q8.59 7.55 8.61 7.56C8.87 7.71 9.07 7.92 9.21 8.18Q9.27 8.28 9.31 8.38Q9.43 8.68 9.43 9.03Q9.43 9.35 9.33 9.64Q9.28 9.77 9.21 9.89Q9.14 10.02 9.04 10.14Q8.87 10.35 8.61 10.5C8.36 10.65 8.06 10.73 7.72 10.73Q7.34 10.73 7.02 10.59Q6.93 10.55 6.84 10.5Q6.6 10.36 6.42 10.16Q6.32 10.03 6.23 9.89Q6.18 9.79 6.14 9.69ZM6.85 14.47L11.7 7.47L12.78 7.47L7.93 14.47L6.85 14.47ZM7.03 8.63Q6.95 8.81 6.95 9.03C6.95 9.18 6.98 9.32 7.04 9.45Q7.11 9.57 7.2 9.67Q7.25 9.72 7.31 9.76C7.43 9.83 7.57 9.87 7.72 9.87Q7.97 9.87 8.14 9.76Q8.2 9.72 8.25 9.67Q8.35 9.57 8.41 9.45C8.48 9.32 8.51 9.18 8.51 9.03Q8.51 8.85 8.45 8.69Q8.43 8.65 8.41 8.61C8.34 8.48 8.25 8.38 8.14 8.31C8.03 8.24 7.89 8.2 7.72 8.2Q7.54 8.2 7.39 8.27Q7.35 8.29 7.31 8.31C7.2 8.38 7.11 8.48 7.04 8.61Q7.04 8.62 7.03 8.63ZM10.41 13.76C10.27 13.5 10.2 13.21 10.2 12.9C10.2 12.59 10.27 12.3 10.41 12.05C10.56 11.79 10.76 11.58 11.02 11.43Q11.11 11.38 11.2 11.34Q11.52 11.2 11.9 11.2Q12.39 11.2 12.75 11.41Q12.77 11.42 12.79 11.43C13.04 11.58 13.24 11.79 13.39 12.05C13.54 12.3 13.61 12.59 13.61 12.9C13.61 13.21 13.54 13.5 13.39 13.76C13.24 14.02 13.04 14.23 12.79 14.38C12.54 14.53 12.24 14.6 11.9 14.6Q11.49 14.6 11.15 14.45Q11.08 14.42 11.02 14.38C10.76 14.23 10.56 14.02 10.41 13.76ZM11.21 12.49C11.15 12.61 11.12 12.75 11.12 12.9C11.12 13.05 11.15 13.19 11.21 13.32C11.28 13.45 11.37 13.55 11.48 13.63C11.6 13.7 11.74 13.74 11.9 13.74C12.07 13.74 12.21 13.7 12.32 13.63C12.43 13.55 12.52 13.45 12.58 13.32C12.65 13.19 12.68 13.05 12.68 12.9C12.68 12.75 12.65 12.62 12.58 12.49C12.52 12.36 12.43 12.26 12.32 12.19C12.21 12.11 12.07 12.07 11.9 12.07C11.74 12.07 11.6 12.11 11.48 12.19C11.37 12.26 11.28 12.36 11.21 12.49Z" fill="#FFFFFF" fill-opacity="1.000000" fill-rule="evenodd"/>
</svg>
