<svg width="10.554688" height="18.000000" viewBox="0 0 10.5547 18" fill="none" xmlns="http://www.w3.org/2000/svg" xmlns:xlink="http://www.w3.org/1999/xlink">
	<desc>
			Created with Pixso.
	</desc>
	<defs/>
	<path id="Vector" d="M10.5 0.26C10.41 0.1 10.25 0 10.07 0L3 0C2.79 0 2.6 0.14 2.54 0.34L0.01 8.8C-0.03 8.95 0 9.1 0.09 9.23C0.18 9.35 0.33 9.42 0.48 9.42L4.44 9.42L2.84 17.42C2.8 17.65 2.93 17.88 3.15 17.96C3.21 17.98 3.26 18 3.32 18C3.49 18 3.65 17.91 3.74 17.75L9.96 6.82C10.05 6.67 10.05 6.49 9.96 6.34C9.87 6.19 9.71 6.1 9.54 6.1L6.74 6.1L10.46 0.76C10.57 0.61 10.58 0.42 10.5 0.26Z" fill="#5D6C7B" fill-opacity="1.000000" fill-rule="nonzero"/>
</svg>
