<svg width="16.000000" height="16.000000" viewBox="0 0 16 16" fill="none" xmlns="http://www.w3.org/2000/svg" xmlns:xlink="http://www.w3.org/1999/xlink">
	<desc>
			Created with Pixso.
	</desc>
	<defs/>
	<path id="Vector" d="M15.95 14.85L10.75 9.65C11.56 8.61 12 7.33 12 6C12 4.39 11.37 2.89 10.24 1.75C9.1 0.62 7.6 0 6 0C4.39 0 2.89 0.62 1.75 1.75C0.62 2.89 0 4.39 0 6C0 7.6 0.62 9.1 1.75 10.24C2.89 11.37 4.39 12 6 12C7.33 12 8.61 11.56 9.65 10.75L14.84 15.95C14.86 15.96 14.88 15.97 14.9 15.98C14.92 15.99 14.94 16 14.96 16C14.98 16 15 15.99 15.02 15.98C15.04 15.97 15.06 15.96 15.07 15.95L15.95 15.08C15.96 15.06 15.98 15.04 15.98 15.02C15.99 15 16 14.98 16 14.96C16 14.94 15.99 14.92 15.98 14.9C15.98 14.88 15.96 14.86 15.95 14.85ZM9.16 9.16C8.32 10.01 7.19 10.48 6 10.48C4.8 10.48 3.67 10.01 2.83 9.16C1.98 8.31 1.51 7.19 1.51 6C1.51 4.8 1.98 3.67 2.83 2.83C3.67 1.98 4.8 1.52 6 1.52C7.19 1.52 8.32 1.98 9.16 2.83C10.01 3.68 10.48 4.8 10.48 6C10.48 7.19 10.01 8.32 9.16 9.16Z" fill="#FFFFFF" fill-opacity="1.000000" fill-rule="nonzero"/>
</svg>
