<svg width="18.000000" height="15.528320" viewBox="0 0 18 15.5283" fill="none" xmlns="http://www.w3.org/2000/svg" xmlns:xlink="http://www.w3.org/1999/xlink">
	<desc>
			Created with Pixso.
	</desc>
	<defs/>
	<path id="Vector" d="M8.47 3.32L8.47 0C6.44 0.11 4.53 0.9 3.01 2.26L5.36 4.61C6.25 3.87 7.32 3.43 8.47 3.32Z" fill="#5D6C7B" fill-opacity="1.000000" fill-rule="nonzero"/>
	<path id="Vector" d="M4.61 5.36L2.26 3C0.91 4.52 0.11 6.43 0 8.46L3.32 8.46C3.43 7.32 3.87 6.24 4.61 5.36Z" fill="#5D6C7B" fill-opacity="1.000000" fill-rule="nonzero"/>
	<path id="Vector" d="M14.66 8.46L17.99 8.46C17.87 6.43 17.08 4.52 15.73 3L13.37 5.36C14.11 6.24 14.56 7.32 14.66 8.46Z" fill="#5D6C7B" fill-opacity="1.000000" fill-rule="nonzero"/>
	<path id="Vector" d="M14.66 9.52C14.49 11.43 13.44 12.6 13.02 13.02C12.82 13.23 12.82 13.56 13.02 13.77L14.62 15.37C14.73 15.47 14.86 15.52 15 15.52C15.13 15.52 15.26 15.47 15.37 15.37C16.95 13.79 17.87 11.73 18 9.52L14.66 9.52Z" fill="#5D6C7B" fill-opacity="1.000000" fill-rule="nonzero"/>
	<path id="Vector" d="M3.27 12.54C3.41 12.31 3.64 11.96 3.91 11.55C3.63 11.01 3.4 10.33 3.32 9.52L0 9.52C0.12 11.73 1.04 13.79 2.62 15.37C2.73 15.47 2.86 15.52 3 15.52C3.13 15.52 3.26 15.47 3.37 15.37L3.92 14.82C3.76 14.74 3.61 14.64 3.48 14.51C2.96 13.98 2.87 13.17 3.27 12.54Z" fill="#5D6C7B" fill-opacity="1.000000" fill-rule="nonzero"/>
	<path id="Vector" d="M9.52 0L9.52 3.32C10.67 3.43 11.75 3.87 12.63 4.61L14.98 2.26C13.46 0.9 11.55 0.11 9.52 0Z" fill="#5D6C7B" fill-opacity="1.000000" fill-rule="nonzero"/>
	<path id="Vector" d="M7.82 7.83C7.01 8.64 4.44 12.66 4.16 13.11C4.02 13.32 4.05 13.59 4.23 13.77C4.4 13.94 4.67 13.97 4.88 13.84C5.34 13.55 9.35 10.99 10.17 10.17C10.81 9.53 10.81 8.47 10.17 7.83C9.52 7.18 8.47 7.18 7.82 7.83Z" fill="#5D6C7B" fill-opacity="1.000000" fill-rule="nonzero"/>
</svg>
