<svg width="15.000000" height="18.007812" viewBox="0 0 15 18.0078" fill="none" xmlns="http://www.w3.org/2000/svg" xmlns:xlink="http://www.w3.org/1999/xlink">
	<desc>
			Created with Pixso.
	</desc>
	<defs/>
	<path id="Vector" d="M12.95 5.35L14.03 4.28L12.96 3.21L11.81 4.37C10.76 3.62 9.53 3.16 8.25 3.03L8.25 1.5L9.75 1.5L9.75 0L5.25 0L5.25 1.5L6.75 1.5L6.75 3.03C5.46 3.16 4.23 3.62 3.18 4.37L2.03 3.21L0.96 4.28L2.04 5.35C1.04 6.42 0.37 7.75 0.11 9.2C-0.15 10.64 0.03 12.13 0.61 13.47C1.19 14.82 2.15 15.96 3.37 16.77C4.6 17.57 6.03 18 7.5 18C8.96 18 10.39 17.57 11.62 16.77C12.84 15.96 13.8 14.82 14.38 13.47C14.96 12.13 15.14 10.64 14.88 9.2C14.62 7.75 13.95 6.42 12.95 5.35ZM7.5 16.5C6.31 16.5 5.15 16.14 4.16 15.48C3.17 14.82 2.41 13.89 1.95 12.79C1.5 11.69 1.38 10.49 1.61 9.32C1.84 8.16 2.41 7.09 3.25 6.25C4.09 5.41 5.16 4.84 6.32 4.61C7.49 4.38 8.69 4.5 9.79 4.95C10.89 5.41 11.82 6.17 12.48 7.16C13.14 8.15 13.5 9.31 13.5 10.5C13.5 12.09 12.86 13.61 11.74 14.74C10.61 15.86 9.08 16.49 7.5 16.5Z" fill="#5D6C7B" fill-opacity="1.000000" fill-rule="nonzero"/>
	<path id="Vector" d="M7.5 6L7.5 10.5L3 10.5C3 11.39 3.26 12.26 3.75 13C4.25 13.74 4.95 14.31 5.77 14.65C6.6 14.99 7.5 15.08 8.37 14.91C9.25 14.73 10.05 14.31 10.68 13.68C11.31 13.05 11.73 12.25 11.91 11.37C12.08 10.5 12 9.6 11.65 8.77C11.31 7.95 10.73 7.25 10 6.75C9.26 6.26 8.39 6 7.5 6Z" fill="#5D6C7B" fill-opacity="1.000000" fill-rule="nonzero"/>
</svg>
