<svg width="34.078125" height="23.367188" viewBox="0 0 34.0781 23.3672" fill="none" xmlns="http://www.w3.org/2000/svg" xmlns:xlink="http://www.w3.org/1999/xlink">
	<desc>
			Created with Pixso.
	</desc>
	<defs/>
	<rect id="Payment Method" rx="-0.243409" width="33.590458" height="22.880457" transform="translate(0.243409 0.243409)" fill="#FFFFFF" fill-opacity="0"/>
	<rect id="BASE" rx="2.920909" width="34.077274" height="23.367275" fill="#FFFFFF" fill-opacity="1.000000"/>
	<rect id="BASE" x="0.242188" y="0.243652" rx="2.920909" width="33.590458" height="22.880457" stroke="#EAEBED" stroke-opacity="1.000000" stroke-width="0.486818"/>
	<path id="Webmoney-watermark" d="M12.8242 15.7329C12.9766 15.6538 13.2344 15.5498 13.5078 15.5498C14.1406 15.5498 14.4805 15.9756 14.4805 16.7676C14.4805 17.6929 14.0234 18.1436 13.2852 18.1436C13.0156 18.1436 12.5977 18.0591 12.293 17.9009L12.293 14.4463L12.8242 14.3223L12.8242 15.7329ZM7.43359 15.6138L7.39844 15.6138L6.72656 18.084L6.17969 18.084L5.35547 14.5742L5.92578 14.5742L6.49609 17.1929L6.53125 17.1929L7.19141 14.5742L7.64453 14.5742L8.35156 17.1929L8.38672 17.1929L8.90625 14.5742L9.5 14.5742L8.67578 18.084L8.125 18.084L7.43359 15.6138ZM16.793 17.3413L16.8164 17.3413L17.9062 14.5742L18.5352 14.5742L18.5352 18.084L17.9883 18.084L17.9883 15.5396L17.9414 15.5396L16.9023 18.084L16.5781 18.084L15.5391 15.5991L15.4961 15.5991L15.4961 18.084L15.0391 18.084L15.0391 14.5742L15.6523 14.5742L16.793 17.3413ZM21.8984 15.916C22.125 15.7822 22.6094 15.5498 23.1953 15.5498C23.8047 15.5498 24.0312 15.7822 24.0312 16.292L24.0312 18.084L23.5039 18.084L23.5039 16.4062C23.5039 16.0151 23.3047 15.9458 23.0469 15.9458C22.8438 15.9458 22.582 16.0352 22.4258 16.124L22.4258 18.084L21.8984 18.084L21.8984 15.916ZM11.7539 17.5396L11.7539 17.9155C11.5234 18.0444 11.2188 18.1436 10.8516 18.1436C10 18.1436 9.64844 17.6284 9.64844 16.8467C9.64844 16.0942 10.0391 15.5498 10.8008 15.5498C11.4375 15.5498 11.8281 15.9507 11.8281 16.7573L11.8281 16.9404L10.1719 16.9404C10.1719 17.5342 10.4219 17.7969 10.9453 17.7969C11.2188 17.7969 11.4727 17.7026 11.7539 17.5396ZM19.0977 16.8467C19.0977 15.9805 19.5859 15.5498 20.2578 15.5498C20.9297 15.5498 21.418 15.9805 21.418 16.8467C21.418 17.6929 20.9531 18.1436 20.2578 18.1436C19.5625 18.1436 19.0977 17.6929 19.0977 16.8467ZM26.6133 17.5396L26.6133 17.9155C26.3828 18.0444 26.0781 18.1436 25.7109 18.1436C24.8594 18.1436 24.5078 17.6284 24.5078 16.8467C24.5078 16.0942 24.8984 15.5498 25.6602 15.5498C26.2969 15.5498 26.6875 15.9507 26.6875 16.7573L26.6875 16.9404L25.0312 16.9404C25.0312 17.5342 25.2812 17.7969 25.8047 17.7969C26.0781 17.7969 26.332 17.7026 26.6133 17.5396ZM28.6641 15.6338L29.2109 15.6338L28.2891 18.1089C28.0352 18.792 27.7227 19.1479 27.1406 19.1479L27.1406 18.7422C27.4844 18.7422 27.6992 18.4751 27.8203 18.1089L26.8438 15.6338L27.4062 15.6338L28.0547 17.4551L28.0859 17.4551L28.6641 15.6338ZM10.1836 16.6089L11.3477 16.6089C11.3203 16.0894 11.0625 15.8813 10.7852 15.8813C10.4766 15.8813 10.2383 16.1143 10.1836 16.6089ZM25.0391 16.6089L26.207 16.6089C26.1797 16.0894 25.9219 15.8813 25.6445 15.8813C25.3359 15.8813 25.0977 16.1143 25.0391 16.6089ZM20.8828 16.8467C20.8828 16.1787 20.6016 15.8965 20.2578 15.8965C19.9219 15.8965 19.6328 16.1787 19.6328 16.8467C19.6328 17.5249 19.8984 17.7969 20.2578 17.7969C20.6172 17.7969 20.8828 17.5249 20.8828 16.8467ZM12.8164 17.7178C12.9805 17.7871 13.1562 17.7969 13.2852 17.7969C13.6602 17.7969 13.9453 17.5693 13.9453 16.7676C13.9453 16.1387 13.7109 15.936 13.3711 15.936C13.168 15.936 13.0195 15.9902 12.8164 16.0991L12.8164 17.7178Z" clip-rule="evenodd" fill="#0068A3" fill-opacity="1.000000" fill-rule="evenodd"/>
	<path id="Webmoney-logo" d="M16.9414 4.19922C17.6406 4.19922 18.3047 4.35791 18.8945 4.63965C18.9883 4.68213 19.0781 4.72949 19.1719 4.78125L18.7617 5.13867L18.1445 4.51855L17.1055 5.42139L16.4883 4.76514L14.5469 6.46533L15.793 7.79834L15.3047 8.21631L16.5273 9.55127L16.043 9.96826L17.7891 11.8628L18.8281 10.9326L19.7266 11.9292C19.5469 12.0645 19.3516 12.1914 19.1367 12.3091C18.4883 12.6694 17.7383 12.8755 16.9414 12.8755C14.4883 12.8755 12.4844 10.9268 12.4844 8.5376C12.4844 6.14795 14.4883 4.19922 16.9414 4.19922ZM19.0703 5.64062L19.6016 5.17627L20.0781 5.69238L19.5469 6.15674L19.0703 5.64062ZM17.3164 6.00146L18.1094 5.30518L18.8242 6.07861L18.0312 6.77539L17.3164 6.00146ZM15.3711 6.50146L16.4297 5.57275L17.3828 6.60449L16.3242 7.5332L15.3711 6.50146ZM19.7461 7.17334L20.2773 6.70898L20.7539 7.22461L20.2227 7.68896L19.7461 7.17334ZM18.0469 7.55762L18.8438 6.86084L19.5586 7.63428L18.7656 8.33105L18.0469 7.55762ZM16.1289 8.26318L17.1875 7.33398L18.1445 8.36572L17.082 9.29443L16.1289 8.26318ZM20.4258 8.70605L20.9531 8.24121L21.4297 8.75732L20.9023 9.22168L20.4258 8.70605ZM18.7266 9.19238L19.5234 8.49561L20.2383 9.26953L19.4453 9.96582L18.7266 9.19238ZM16.8828 10.0454L17.9414 9.1167L18.8984 10.1484L17.8359 11.0776L16.8828 10.0454ZM19.4258 10.7549L20.2227 10.0581L20.9375 10.832L20.1406 11.5283L19.4258 10.7549Z" clip-rule="evenodd" fill="#0068A3" fill-opacity="1.000000" fill-rule="evenodd"/>
</svg>
