<svg width="191.000000" height="86.000000" viewBox="0 0 191 86" fill="none" xmlns="http://www.w3.org/2000/svg" xmlns:xlink="http://www.w3.org/1999/xlink">
	<desc>
			Created with Pixso.
	</desc>
	<defs>
		<filter id="filter_182_130_dd" x="0.000000" y="8.000000" width="78.000000" height="78.000000" filterUnits="userSpaceOnUse" color-interpolation-filters="sRGB">
			<feFlood flood-opacity="0" result="BackgroundImageFix"/>
			<feBlend mode="normal" in="SourceGraphic" in2="BackgroundImageFix" result="shape"/>
			<feGaussianBlur stdDeviation="5" result="effect_layerBlur_1"/>
		</filter>
	</defs>
	<rect id="Rectangle 167" x="1.000000" rx="5.000000" width="190.000000" height="76.000000" fill="#FFFFFF" fill-opacity="1.000000"/>
	<rect id="Rectangle 167" x="1.500000" y="0.500000" rx="5.000000" width="189.000000" height="75.000000" stroke="#5D6C7B" stroke-opacity="0.100000" stroke-width="1.000000"/>
	<path id="4,9" d="M141.56 48.68L136.23 55.63L131.71 55.63L136.82 49.63C136.78 49.65 136.73 49.67 136.68 49.68C136.25 49.82 135.72 49.88 135.11 49.88C134.44 49.88 133.79 49.75 133.16 49.48C132.52 49.22 131.95 48.83 131.43 48.33Q130.68 47.58 130.23 46.53C129.93 45.83 129.78 45.06 129.78 44.21Q129.78 42.16 130.68 40.73C131.3 39.78 132.11 39.07 133.13 38.58C134.15 38.08 135.28 37.83 136.53 37.83C137.78 37.83 138.91 38.08 139.93 38.58C140.95 39.07 141.76 39.78 142.36 40.73C142.97 41.68 143.28 42.84 143.28 44.21C143.28 45.07 143.11 45.88 142.78 46.63C142.45 47.37 142.04 48.05 141.56 48.68ZM113.17 52.46L104.4 52.46L114.42 38.18L116.85 38.18L116.85 49.41L119.6 49.41L119.6 52.46L116.85 52.46L116.85 55.68L113.17 55.68L113.17 52.46ZM113.47 49.78L113.47 43.88L109.35 49.78L113.47 49.78ZM139.36 45.93C139.64 45.43 139.78 44.86 139.78 44.21Q139.78 43.21 139.36 42.48C139.07 41.98 138.68 41.6 138.18 41.33C137.7 41.05 137.15 40.91 136.53 40.91C135.91 40.91 135.36 41.05 134.86 41.33C134.37 41.6 133.99 41.98 133.71 42.48Q133.28 43.21 133.28 44.21C133.28 44.86 133.42 45.43 133.71 45.93C133.99 46.43 134.37 46.82 134.86 47.11C135.36 47.39 135.91 47.53 136.53 47.53C137.15 47.53 137.7 47.39 138.18 47.11Q138.56 46.9 138.85 46.6Q139.14 46.31 139.36 45.93ZM121.57 59.41L123.77 52.93L127 53.73L123.97 59.98L121.57 59.41Z" fill="#282739" fill-opacity="1.000000" fill-rule="evenodd"/>
	<path id="Star 6" d="M92 40L90.15 44.45L85.34 44.83L89.01 47.97L87.88 52.66L92 50.14L96.11 52.66L94.98 47.97L98.65 44.83L93.84 44.45L92 40Z" fill="#FFD12E" fill-opacity="1.000000" fill-rule="evenodd"/>
	<g opacity="0.500000" filter="url(#filter_182_130_dd)">
		<rect id="Rectangle 166" x="15.000000" y="23.000000" rx="5.000000" width="48.000000" height="48.000000" fill="#FC3F1D" fill-opacity="1.000000"/>
	</g>
	<rect id="Rectangle 168" x="11.000000" y="10.000000" rx="5.000000" width="56.000000" height="56.000000" fill="#FC3F1D" fill-opacity="1.000000"/>
	<path id="Glyph" d="M48 53L43 53L43 27.91L40.77 27.91C36.69 27.91 34.55 29.99 34.55 33.08C34.55 36.58 36.03 38.21 39.08 40.28L41.59 42L34.37 53L29 53L35.5 43.18C31.76 40.47 29.66 37.83 29.66 33.36C29.66 27.79 33.49 24 40.74 24L47.96 24L47.96 53L48 53Z" fill="#FFFFFF" fill-opacity="1.000000" fill-rule="nonzero"/>
	<path id="Яндекс отзывы" d="M89.74 18.6L88.48 18.6Q87.67 18.6 87.02 18.9Q86.58 19.11 86.27 19.43Q86.12 19.59 86 19.77Q85.96 19.84 85.92 19.9Q85.62 20.42 85.62 21.12Q85.62 21.75 85.88 22.26Q85.93 22.36 86 22.45Q86.12 22.64 86.28 22.8Q86.59 23.12 87.02 23.33Q87.31 23.46 87.62 23.54L85.12 27L86.37 27L88.71 23.63L89.74 23.63L89.74 27L90.75 27L90.75 18.6L89.74 18.6ZM89.74 22.74L89.74 19.5L88.48 19.5Q87.94 19.5 87.52 19.69Q87.24 19.82 87.04 20.03Q86.95 20.12 86.87 20.24Q86.64 20.6 86.64 21.12Q86.64 21.63 86.87 21.99Q86.94 22.1 87.03 22.2Q87.23 22.41 87.52 22.54Q87.94 22.74 88.48 22.74L89.74 22.74ZM103.77 26.1L102.39 23.13L101.02 26.1L103.77 26.1ZM104.84 26.1L102.39 21.05L99.96 26.1L98.98 26.1L98.98 28.08L100 28.08L100 27L104.86 27L104.86 28.08L105.82 28.08L105.82 26.1L104.84 26.1ZM107.76 24.48L112.1 24.48Q112.12 24.4 112.12 24.33L112.12 24.19Q112.12 23.31 111.79 22.68Q111.59 22.29 111.28 22Q111.1 21.83 110.88 21.7Q110.84 21.68 110.81 21.66Q110.24 21.36 109.51 21.36Q108.84 21.36 108.3 21.61Q108.26 21.63 108.23 21.64Q107.92 21.8 107.67 22.03Q107.46 22.22 107.3 22.45Q106.94 22.96 106.82 23.65Q106.8 23.79 106.79 23.94Q106.77 24.08 106.77 24.24Q106.77 25.05 107.11 25.69Q107.11 25.71 107.12 25.72Q107.36 26.17 107.72 26.49Q107.87 26.63 108.05 26.74Q108.24 26.86 108.43 26.94Q108.88 27.12 109.39 27.12Q110.11 27.12 110.59 26.94Q111.07 26.77 111.41 26.45Q111.74 26.13 112.02 25.71L111.24 25.22Q111.08 25.48 110.87 25.68Q110.84 25.71 110.81 25.74Q110.73 25.81 110.64 25.88Q110.45 26.01 110.24 26.09Q109.92 26.22 109.51 26.22Q108.97 26.22 108.58 25.99Q108.47 25.92 108.37 25.84Q108.12 25.63 107.96 25.32Q107.79 24.96 107.76 24.48ZM107.78 23.66Q107.82 23.3 107.99 23.01Q108 23 108 22.98Q108.12 22.79 108.28 22.64Q108.44 22.5 108.63 22.4Q108.7 22.37 108.77 22.34Q109.11 22.2 109.51 22.2Q109.99 22.2 110.32 22.38Q110.48 22.48 110.61 22.6Q110.74 22.73 110.83 22.9Q111.02 23.23 111.07 23.66L107.78 23.66ZM119.2 23.24Q118.97 23.68 118.97 24.24Q118.97 24.8 119.2 25.24Q119.21 25.25 119.21 25.26Q119.36 25.51 119.55 25.7Q119.7 25.85 119.89 25.96Q119.97 26.01 120.07 26.05Q120.42 26.22 120.85 26.22Q121.29 26.22 121.68 26.08Q122.08 25.94 122.36 25.71Q122.65 25.47 122.77 25.21L122.77 26.41Q122.48 26.74 121.95 26.93Q121.67 27.03 121.38 27.07Q121.12 27.12 120.85 27.12Q120.22 27.12 119.69 26.89Q119.54 26.83 119.4 26.74Q119.1 26.57 118.86 26.34Q118.58 26.07 118.37 25.72Q118.31 25.61 118.26 25.5Q118 24.93 118 24.24Q118 23.48 118.3 22.88Q118.34 22.81 118.37 22.75Q118.57 22.41 118.83 22.15Q119.09 21.91 119.4 21.73Q119.54 21.65 119.69 21.58Q120.22 21.36 120.85 21.36Q121.11 21.36 121.36 21.39Q121.66 21.44 121.95 21.54Q122.48 21.73 122.77 22.06L122.77 23.26Q122.65 22.99 122.36 22.76Q122.08 22.53 121.68 22.39Q121.29 22.25 120.85 22.25Q120.41 22.25 120.04 22.43Q119.96 22.46 119.89 22.51Q119.73 22.6 119.6 22.71Q119.37 22.92 119.21 23.21Q119.21 23.23 119.2 23.24ZM127.66 25.5Q127.39 24.93 127.39 24.24Q127.39 23.48 127.7 22.88Q127.73 22.81 127.77 22.75Q127.96 22.41 128.23 22.15Q128.48 21.91 128.79 21.73Q128.95 21.64 129.12 21.57Q129.64 21.36 130.25 21.36Q130.94 21.36 131.51 21.62Q131.61 21.67 131.71 21.73Q132 21.9 132.24 22.13Q132.52 22.4 132.73 22.75Q132.76 22.81 132.8 22.88Q133.1 23.48 133.1 24.24Q133.1 24.93 132.84 25.5Q132.79 25.61 132.73 25.72Q132.51 26.09 132.21 26.37Q131.98 26.58 131.71 26.74Q131.61 26.8 131.51 26.85Q130.94 27.12 130.25 27.12Q129.64 27.12 129.12 26.9Q128.95 26.83 128.79 26.74Q128.5 26.57 128.25 26.34Q127.97 26.07 127.77 25.72Q127.71 25.61 127.66 25.5ZM139.74 24.24L139.74 23.63Q140.29 23.63 140.53 23.43Q140.67 23.3 140.73 23.15Q140.77 23.04 140.77 22.91Q140.77 22.73 140.69 22.59Q140.63 22.48 140.53 22.41Q140.29 22.22 139.86 22.22Q139.5 22.22 139.27 22.36Q139.03 22.5 138.92 22.69Q138.81 22.89 138.81 23.08L137.84 23.08Q137.84 22.87 137.9 22.67Q137.97 22.43 138.11 22.22Q138.17 22.13 138.23 22.06Q138.47 21.77 138.83 21.59L138.83 21.59Q139.28 21.36 139.86 21.36Q140.4 21.36 140.83 21.56Q141.26 21.76 141.51 22.1Q141.65 22.29 141.71 22.5Q141.75 22.67 141.75 22.84Q141.75 23.07 141.68 23.26Q141.56 23.59 141.22 23.84Q141.07 23.95 140.9 24.03Q141.17 24.11 141.38 24.24Q141.63 24.38 141.78 24.6Q142 24.91 142 25.37Q142 25.77 141.84 26.08Q141.78 26.2 141.7 26.31Q141.65 26.37 141.6 26.42Q141.33 26.73 140.91 26.91Q140.42 27.12 139.84 27.12Q138.98 27.12 138.42 26.71Q138.35 26.65 138.28 26.59Q138.03 26.36 137.87 26.08Q137.66 25.71 137.6 25.25L138.58 25.25Q138.61 25.4 138.67 25.54Q138.76 25.77 138.93 25.96L138.93 25.96Q139.21 26.27 139.84 26.27Q140.22 26.27 140.49 26.17Q140.74 26.07 140.88 25.88Q140.89 25.87 140.9 25.86Q140.95 25.78 140.99 25.7Q141.05 25.56 141.05 25.39Q141.05 25.15 140.94 24.97Q140.92 24.93 140.9 24.9Q140.75 24.69 140.45 24.58Q140.16 24.48 139.74 24.48L139.74 24.24ZM92.61 27L92.61 21.48L93.58 21.48L93.58 23.63L96.63 23.63L96.63 21.48L97.59 21.48L97.59 27L96.63 27L96.63 24.53L93.58 24.53L93.58 27L92.61 27ZM113.38 27L113.38 21.48L114.33 21.48L114.33 23.42L116.38 21.48L117.57 21.48L115.18 23.75L117.81 27L116.62 27L114.33 24.19L114.33 27L113.38 27ZM133.58 22.37L133.58 21.48L136.82 21.48L136.82 22.37L135.68 22.37L135.68 27L134.72 27L134.72 22.37L133.58 22.37ZM143.43 27L143.43 21.48L144.39 21.48L144.39 23.56L145.71 23.56Q146.52 23.56 147.08 23.93Q147.12 23.95 147.15 23.98Q147.3 24.08 147.41 24.22Q147.73 24.62 147.73 25.28Q147.73 25.87 147.47 26.25Q147.38 26.38 147.26 26.49Q147.05 26.7 146.75 26.82Q146.29 27 145.71 27L143.43 27ZM144.39 26.15L145.71 26.15Q146.06 26.15 146.3 26.05Q146.47 25.98 146.59 25.85Q146.62 25.8 146.65 25.75Q146.77 25.55 146.77 25.28Q146.77 24.96 146.62 24.75Q146.57 24.69 146.51 24.63Q146.24 24.4 145.71 24.4L144.39 24.4L144.39 26.15ZM148.42 27L148.42 21.48L149.38 21.48L149.38 27L148.42 27ZM151.17 27L151.17 21.48L153.22 21.48Q153.73 21.48 154.16 21.62Q154.45 21.73 154.67 21.92Q154.77 22.01 154.85 22.11Q154.85 22.11 154.86 22.12Q155.11 22.45 155.11 22.98Q155.11 23.34 154.95 23.61Q154.9 23.68 154.85 23.75Q154.82 23.77 154.8 23.8Q154.56 24.05 154.19 24.19Q154.28 24.21 154.37 24.24Q154.8 24.35 155.06 24.62Q155.07 24.64 155.09 24.66Q155.35 24.96 155.35 25.5Q155.35 25.84 155.22 26.13Q155.12 26.36 154.94 26.56Q154.52 27 153.57 27L151.17 27ZM152.14 26.15L153.33 26.15Q153.88 26.15 154.13 25.93Q154.28 25.79 154.35 25.63Q154.39 25.51 154.39 25.37Q154.39 25.21 154.32 25.08Q154.26 24.94 154.13 24.84Q154.01 24.73 153.81 24.67Q153.61 24.62 153.33 24.62L152.14 24.62L152.14 26.15ZM152.14 23.79L153.22 23.79Q153.43 23.79 153.6 23.74Q153.78 23.68 153.9 23.58Q154.01 23.48 154.07 23.36Q154.08 23.35 154.08 23.33Q154.11 23.28 154.12 23.23Q154.15 23.14 154.15 23.03Q154.15 22.87 154.09 22.74Q154.02 22.61 153.9 22.52Q153.65 22.32 153.22 22.32L152.14 22.32L152.14 23.79ZM156.61 27L156.61 21.48L157.57 21.48L157.57 23.56L158.89 23.56Q159.7 23.56 160.26 23.93Q160.29 23.95 160.33 23.98Q160.47 24.08 160.58 24.22Q160.91 24.62 160.91 25.28Q160.91 25.87 160.64 26.25Q160.55 26.38 160.44 26.49Q160.22 26.7 159.92 26.82Q159.47 27 158.89 27L156.61 27ZM157.57 26.15L158.89 26.15Q159.24 26.15 159.47 26.05Q159.65 25.98 159.76 25.85Q159.8 25.8 159.83 25.75Q159.95 25.55 159.95 25.28Q159.95 24.96 159.8 24.75Q159.75 24.69 159.68 24.63Q159.42 24.4 158.89 24.4L157.57 24.4L157.57 26.15ZM161.59 27L161.59 21.48L162.55 21.48L162.55 27L161.59 27ZM128.59 23.24Q128.36 23.68 128.36 24.24Q128.36 24.8 128.6 25.24Q128.6 25.25 128.61 25.26Q128.75 25.51 128.95 25.7Q129.1 25.85 129.28 25.96Q129.38 26.02 129.49 26.07Q129.84 26.22 130.25 26.22Q130.68 26.22 131.03 26.05Q131.13 26.01 131.21 25.96Q131.4 25.85 131.55 25.7Q131.74 25.51 131.88 25.26Q131.89 25.25 131.9 25.24Q132.13 24.8 132.13 24.24Q132.13 23.68 131.9 23.24Q131.89 23.23 131.88 23.21Q131.73 22.92 131.5 22.71Q131.37 22.6 131.21 22.51Q131.14 22.46 131.06 22.43Q130.69 22.25 130.25 22.25Q129.82 22.25 129.46 22.41Q129.37 22.45 129.28 22.51Q129.13 22.6 129 22.71Q128.77 22.92 128.61 23.21Q128.6 23.23 128.59 23.24Z" fill="#5D6C7B" fill-opacity="1.000000" fill-rule="evenodd"/>
</svg>
